<svg width="117" height="126" viewBox="0 0 117 126" fill="none" xmlns="http://www.w3.org/2000/svg">
<g clip-path="url(#clip0_1284_41182)">
<path d="M58.5 116.519C90.8087 116.519 117 90.4355 117 58.2596C117 26.0837 90.8087 0 58.5 0C26.1913 0 0 26.0837 0 58.2596C0 90.4355 26.1913 116.519 58.5 116.519Z" fill="#E1E1EF"/>
<path d="M47.8856 80.0174C47.6121 80.0168 47.3495 79.9109 47.1528 79.7217C46.9561 79.5326 46.8406 79.2749 46.8304 79.0028C46.8202 78.7306 46.9162 78.4652 47.0982 78.262C47.2803 78.0588 47.5342 77.9336 47.8069 77.9128C58.4141 77.1095 62.1469 62.651 62.121 50.5097C62.0941 38.1168 58.0827 25.0134 51.4092 24.537C51.2706 24.5271 51.1353 24.4901 51.011 24.4281C50.8867 24.3662 50.7759 24.2804 50.6849 24.1758C50.5939 24.0712 50.5245 23.9498 50.4806 23.8184C50.4367 23.6871 50.4192 23.5484 50.4292 23.4104C50.4391 23.2723 50.4762 23.1375 50.5384 23.0138C50.6007 22.89 50.6868 22.7797 50.7918 22.689C50.8968 22.5984 51.0188 22.5293 51.1507 22.4856C51.2825 22.4419 51.4218 22.4244 51.5604 22.4343C59.844 23.0262 64.2085 37.0031 64.2375 50.5046C64.2654 63.5472 60.0211 79.1018 47.9674 80.0144C47.9405 80.0164 47.9125 80.0174 47.8856 80.0174Z" fill="#1B360E"/>
<path d="M69.4562 74.8826C69.3165 74.8832 69.1782 74.8561 69.0491 74.803C68.9201 74.7499 68.8029 74.6718 68.7044 74.5732C68.6402 74.5082 62.3633 68.0024 68.9208 57.9709C74.6945 49.1398 73.7098 44.3045 73.6984 44.256C73.6381 43.9845 73.6873 43.7002 73.8355 43.4644C73.9837 43.2287 74.2189 43.0604 74.4905 42.9959C74.7613 42.931 75.0469 42.9757 75.2845 43.1204C75.5221 43.265 75.6924 43.4977 75.7579 43.7672C75.8128 43.9941 77.0388 49.4161 70.6946 59.1207C65.0576 67.7425 70.1561 73.0367 70.2079 73.0893C70.3548 73.2371 70.4545 73.4249 70.4945 73.629C70.5345 73.8331 70.5129 74.0444 70.4325 74.2364C70.3522 74.4283 70.2166 74.5923 70.0429 74.7076C69.8691 74.823 69.665 74.8846 69.4562 74.8846V74.8826Z" fill="#1B360E"/>
<path d="M53.4097 74.8825C53.2243 74.8825 53.0421 74.8339 52.8815 74.7416C52.7209 74.6493 52.5875 74.5166 52.4946 74.3568C52.4018 74.1969 52.3528 74.0156 52.3526 73.8309C52.3523 73.6463 52.4009 73.4648 52.4933 73.3047C56.0418 67.131 57.0058 61.8316 55.3584 57.5563C53.5205 52.7891 48.3235 48.9757 39.9125 46.2203C39.7769 46.1802 39.6507 46.1133 39.5415 46.0237C39.4322 45.9341 39.3421 45.8236 39.2765 45.6988C39.2109 45.5739 39.1711 45.4372 39.1595 45.2967C39.1478 45.1563 39.1646 45.015 39.2088 44.8811C39.253 44.7472 39.3237 44.6235 39.4167 44.5173C39.5098 44.4111 39.6232 44.3246 39.7504 44.2628C39.8777 44.2011 40.016 44.1653 40.1573 44.1578C40.2986 44.1502 40.44 44.171 40.5731 44.2188C49.6189 47.1804 55.258 51.4145 57.334 56.7994C59.2217 61.6945 58.21 67.5991 54.3312 74.3504C54.2387 74.5124 54.1046 74.647 53.9427 74.7405C53.7807 74.834 53.5968 74.883 53.4097 74.8825Z" fill="#1B360E"/>
<path d="M11.2606 124.652C19.1342 124.348 27.0074 124.147 34.8803 124.048L46.6844 123.929L58.4948 123.904C66.3643 123.92 74.241 123.96 82.1146 124.081C89.9882 124.184 97.8614 124.374 105.734 124.652C105.811 124.656 105.884 124.69 105.937 124.746C105.989 124.802 106.019 124.876 106.019 124.953C106.019 125.029 105.989 125.103 105.937 125.159C105.884 125.215 105.811 125.249 105.734 125.253C97.8648 125.534 89.9916 125.724 82.1146 125.824C74.2451 125.944 66.3684 125.984 58.4948 126L46.6844 125.976L34.8803 125.856C27.0067 125.761 19.1335 125.56 11.2606 125.253C11.1836 125.249 11.1112 125.215 11.0583 125.159C11.0054 125.103 10.9759 125.029 10.9759 124.953C10.9759 124.876 11.0054 124.802 11.0583 124.746C11.1112 124.69 11.1836 124.656 11.2606 124.652Z" fill="#1B360E"/>
<path d="M81.2934 117.643C79.6854 121.946 75.5104 124.764 70.8996 124.764H45.7256C43.4377 124.758 41.2069 124.053 39.3345 122.743C37.4622 121.434 36.0386 119.584 35.2562 117.443C30.3895 104.27 30.8596 90.5852 37.3395 76.3217C37.6746 75.5787 38.218 74.948 38.9045 74.5053C39.5909 74.0626 40.3912 73.8268 41.209 73.8262H75.4131C76.2309 73.8275 77.031 74.0636 77.7175 74.5062C78.4039 74.9488 78.9477 75.5791 79.2836 76.3217C81.5751 81.3622 83.1148 86.3336 83.9328 91.2328C85.4384 100.266 84.4982 109.064 81.2934 117.643Z" fill="#E86A23"/>
<g opacity="0.3">
<path d="M65.4665 73.8301L65.4292 73.8662C65.2522 73.8417 65.0737 73.8296 64.895 73.8301H65.4665Z" fill="#792937"/>
<path d="M65.3889 74.1693C65.2251 74.1474 65.0601 74.1364 64.895 74.1363V73.5176H66.2089L65.5628 74.16L65.3889 74.1693Z" fill="#1B360E"/>
</g>
<g opacity="0.3">
<path d="M76.6257 74.0061C76.4316 73.9481 76.2337 73.9037 76.0334 73.873C76.2339 73.9022 76.4319 73.9467 76.6257 74.0061Z" fill="#792937"/>
<path d="M76.5376 74.3004C76.3573 74.247 76.1736 74.2056 75.9878 74.1767L76.0779 73.5703C76.2943 73.6013 76.5079 73.6493 76.7168 73.7137L76.5376 74.3004Z" fill="#1B360E"/>
</g>
<g opacity="0.3">
<path d="M84.6307 99.3138C84.669 105.534 83.5342 111.642 81.2945 117.642C79.6864 121.947 75.5115 124.763 70.9016 124.763H45.7256C45.5403 124.763 45.3601 124.763 45.1748 124.747C45.0598 124.747 44.9439 124.736 44.8289 124.725C45.5827 124.686 46.3334 124.622 47.0686 124.533C60.4912 122.883 70.9306 112.542 73.1351 99.8449C73.2291 99.3224 73.4928 98.845 73.8856 98.4862C74.2784 98.1274 74.7787 97.907 75.3096 97.8588C75.8604 97.8073 76.4734 97.7773 77.1734 97.7773C80.1441 97.7773 81.5906 98.3064 83.1262 98.8694C83.499 99.0034 83.8728 99.1416 84.2652 99.2685C84.3825 99.3088 84.507 99.3243 84.6307 99.3138Z" fill="#1B360E"/>
</g>
<g opacity="0.25">
<path d="M42.0332 108.319C42.5147 109.924 43.4829 111.785 45.1686 111.804C46.0798 111.814 46.9144 111.221 47.4197 110.463C47.925 109.705 48.1548 108.813 48.3443 107.92C49.7129 101.443 49.3635 94.7217 47.3306 88.4194C47.0096 87.4305 46.6306 86.4251 45.9182 85.6661C41.9369 81.4196 40.9087 91.7553 40.6913 93.8476C40.1812 98.7125 40.6372 103.63 42.0332 108.319Z" fill="white"/>
</g>
<g opacity="0.55">
<path d="M84.2072 89.8497C84.1285 90.0643 83.9739 90.2429 83.7723 90.3519C83.6619 89.7497 83.539 89.1454 83.4037 88.5391C83.4845 88.5659 83.5569 88.5927 83.6346 88.6195C83.8741 88.7073 84.0689 88.8861 84.1763 89.1167C84.2836 89.3473 84.2947 89.6109 84.2072 89.8497Z" fill="white"/>
<path d="M83.5476 90.8181L83.4699 90.4056C83.3591 89.8075 83.237 89.2053 83.1023 88.6031L82.9854 88.0762L83.7371 88.3288C84.053 88.445 84.31 88.6807 84.4524 88.9847C84.5947 89.2886 84.6108 89.6362 84.4971 89.9519C84.3918 90.2355 84.1869 90.4714 83.9204 90.616L83.5476 90.8181ZM83.8582 89.1682C83.8903 89.3229 83.9214 89.4776 83.9525 89.6302C83.9784 89.4687 83.9433 89.3034 83.8541 89.1662L83.8582 89.1682Z" fill="#1B360E"/>
</g>
<g opacity="0.55">
<path d="M73.5379 96.177C73.5296 96.3523 73.5203 96.5266 73.5089 96.7008C73.4843 97.1146 73.3371 97.5117 73.0859 97.8421C72.8347 98.1725 72.4908 98.4213 72.0976 98.557C71.7973 98.6601 71.5053 98.7633 71.2092 98.8746C69.5856 99.4686 67.9081 100.082 64.5947 100.082C61.2812 100.082 59.6048 99.4686 57.9802 98.8746C56.4457 98.3116 54.9991 97.7826 52.0243 97.7826C49.0494 97.7826 47.607 98.3116 46.0715 98.8746C44.4479 99.4686 42.7704 100.082 39.457 100.082C38.651 100.086 37.8455 100.044 37.0444 99.9553C36.8597 99.9349 36.6729 99.9543 36.4964 100.012C36.32 100.07 36.1582 100.165 36.022 100.291C35.8859 100.417 35.7785 100.571 35.7073 100.742C35.636 100.912 35.6026 101.097 35.6092 101.281C35.7935 106.754 36.887 112.141 38.8492 117.449C39.6274 119.592 41.0496 121.444 42.9222 122.754C44.7948 124.064 47.0271 124.768 49.3155 124.77H45.7256C45.5403 124.77 45.3601 124.77 45.1748 124.755C45.0598 124.755 44.9438 124.743 44.8289 124.732C42.7017 124.555 40.6699 123.775 38.9734 122.485C37.2769 121.195 35.9867 119.448 35.2551 117.451C32.9771 111.274 31.865 104.985 31.9997 98.5797C32.0121 97.9362 32.038 97.2924 32.0773 96.6483C32.2025 94.5726 32.4543 92.5064 32.8311 90.4611C32.9346 89.863 33.0579 89.269 33.1852 88.6709C34.0737 84.5867 35.4677 80.4557 37.3674 76.278C37.7035 75.5457 38.2446 74.9256 38.9258 74.4921C39.6071 74.0586 40.3995 73.8301 41.2079 73.834H44.802C43.9837 73.8351 43.1832 74.0713 42.4964 74.5143C41.8097 74.9573 41.2659 75.5883 40.9304 76.3316C38.903 80.8001 37.4575 85.2085 36.5939 89.5567C37.5411 89.7025 38.4986 89.7715 39.457 89.7629C42.4277 89.7629 43.8742 89.234 45.4098 88.6709C47.0334 88.077 48.7108 87.4634 52.0243 87.4634C55.3377 87.4634 57.0183 88.077 58.6429 88.6709C60.1774 89.234 61.625 89.7629 64.5947 89.7629C67.5643 89.7629 69.0129 89.234 70.5475 88.6709C71.2707 88.3925 72.0079 88.1515 72.7561 87.9491H72.7613V87.9676C72.8733 88.4619 72.8002 88.9798 72.5557 89.4241C72.3113 89.8685 71.9123 90.2086 71.4338 90.3806L71.205 90.4642C69.5814 91.0581 67.904 91.6707 64.5905 91.6707C61.2771 91.6707 59.6007 91.0581 57.9761 90.4642C56.4415 89.9001 54.995 89.3711 52.0201 89.3711C49.0453 89.3711 47.6029 89.9001 46.0673 90.4642C44.4437 91.0581 42.7663 91.6707 39.4528 91.6707C38.7104 91.6707 38.0488 91.6397 37.4523 91.5861C37.1206 91.5569 36.7904 91.6561 36.5302 91.8631C36.2701 92.0701 36.1 92.3691 36.0555 92.6978C35.8228 94.3715 35.6752 96.0559 35.6134 97.7444C36.6022 97.9899 37.7878 98.1569 39.4528 98.1569C42.4236 98.1569 43.8701 97.6279 45.4057 97.0649C47.0293 96.4709 48.7067 95.8573 52.0201 95.8573C55.3336 95.8573 57.0141 96.4709 58.6388 97.0649C60.1733 97.6279 61.6209 98.1569 64.5905 98.1569C67.5602 98.1569 69.0088 97.6279 70.5434 97.0649C71.4401 96.7442 72.3482 96.4111 73.5379 96.177Z" fill="white"/>
</g>
<path d="M70.9006 125.817H45.7246C40.6395 125.817 36.0338 122.599 34.2642 117.81C29.2257 104.173 29.936 90.0706 36.3755 75.8917C36.796 74.9649 37.4755 74.1784 38.3328 73.6258C39.19 73.0732 40.1889 72.778 41.21 72.7754H75.4131C76.4343 72.778 77.4331 73.0732 78.2904 73.6258C79.1476 74.1784 79.8271 74.9649 80.2476 75.8917C86.7192 90.1397 87.4036 104.31 82.2854 118.011C80.5396 122.68 75.966 125.817 70.9006 125.817ZM41.21 74.8832C40.5957 74.8854 39.995 75.0636 39.4796 75.3966C38.9642 75.7295 38.5559 76.2032 38.3035 76.761C32.1011 90.4161 31.4105 103.985 36.2502 117.081C37.7143 121.045 41.5217 123.708 45.7246 123.708H70.9006C75.0859 123.708 78.8632 121.123 80.3015 117.276C85.2189 104.115 84.552 90.4831 78.3196 76.76C78.0671 76.2022 77.6588 75.7286 77.1435 75.3957C76.6281 75.0627 76.0274 74.8845 75.4131 74.8821L41.21 74.8832Z" fill="#1B360E"/>
<path d="M64.5957 90.0356C61.3195 90.0356 59.6587 89.4272 58.0516 88.8394C56.4985 88.2722 55.0343 87.736 52.0243 87.736C49.0142 87.736 47.5522 88.2722 46.0021 88.8394C44.3951 89.4272 42.7332 90.0356 39.457 90.0356C36.1808 90.0356 34.5075 89.4241 33.0372 88.8858C32.8547 88.8132 32.7078 88.6727 32.6275 88.4941C32.5473 88.3154 32.5401 88.1127 32.6074 87.9288C32.6748 87.745 32.8113 87.5945 32.9882 87.5092C33.1651 87.4239 33.3683 87.4106 33.5549 87.472C34.9776 87.9876 36.4542 88.53 39.457 88.53C42.4598 88.53 43.9291 87.9938 45.4802 87.4267C47.0862 86.8379 48.7481 86.2305 52.0243 86.2305C55.3005 86.2305 56.9655 86.8379 58.5725 87.4267C60.1257 87.9938 61.5887 88.53 64.5957 88.53C67.6027 88.53 69.0668 87.9938 70.6179 87.4267C72.2249 86.8379 73.8879 86.2305 77.1661 86.2305C80.4444 86.2305 82.1684 86.8636 83.5632 87.372C83.7456 87.4446 83.8926 87.5851 83.9728 87.7638C84.053 87.9424 84.0602 88.1451 83.9929 88.329C83.9256 88.5128 83.789 88.6634 83.6121 88.7486C83.4353 88.8339 83.232 88.8472 83.0454 88.7858C81.6993 88.2939 80.1658 87.736 77.1682 87.736C74.1706 87.736 72.693 88.2722 71.1408 88.8394C69.5328 89.4272 67.8708 90.0356 64.5957 90.0356Z" fill="#1B360E"/>
<path d="M64.5957 98.4349C61.3195 98.4349 59.6587 97.8276 58.0517 97.2398C56.4985 96.6726 55.0343 96.1364 52.0243 96.1364C49.0142 96.1364 47.5522 96.6716 46.0021 97.2387C44.3951 97.8276 42.7332 98.4349 39.457 98.4349C36.1808 98.4349 34.521 97.8276 32.914 97.2408C32.5723 97.116 32.2295 96.9902 31.8702 96.8717C31.776 96.8405 31.6888 96.7912 31.6137 96.7265C31.5387 96.6618 31.4771 96.583 31.4326 96.4946C31.388 96.4062 31.3615 96.31 31.3543 96.2114C31.3471 96.1127 31.3595 96.0137 31.3908 95.9199C31.4221 95.826 31.4716 95.7392 31.5366 95.6644C31.6015 95.5896 31.6806 95.5283 31.7694 95.484C31.8581 95.4397 31.9548 95.4132 32.0538 95.406C32.1528 95.3989 32.2523 95.4113 32.3465 95.4424C32.7214 95.5672 33.0786 95.6971 33.4348 95.8281C34.988 96.3942 36.4511 96.9294 39.457 96.9294C42.4629 96.9294 43.9291 96.3942 45.4802 95.826C47.0862 95.2382 48.7481 94.6309 52.0243 94.6309C55.3005 94.6309 56.9655 95.2382 58.5725 95.826C60.1257 96.3942 61.5888 96.9294 64.5957 96.9294C67.6027 96.9294 69.0668 96.3942 70.6179 95.826C72.2249 95.2382 73.8879 94.6309 77.1661 94.6309C80.4444 94.6309 82.1021 95.2382 83.7092 95.825C84.0643 95.9549 84.4205 96.0859 84.7943 96.2086C84.9848 96.2712 85.1424 96.4066 85.2326 96.585C85.3228 96.7634 85.3382 96.9702 85.2753 97.1599C85.2124 97.3495 85.0764 97.5066 84.8973 97.5964C84.7182 97.6862 84.5105 97.7015 84.3201 97.6389C83.9297 97.51 83.559 97.3738 83.1883 97.2387C81.6351 96.6716 80.1731 96.1364 77.1661 96.1364C74.1592 96.1364 72.6909 96.6726 71.1388 97.2398C69.5328 97.8276 67.8709 98.4349 64.5957 98.4349Z" fill="#1B360E"/>
<g opacity="0.25">
<path d="M45.882 119.289C46.2445 119.548 46.6859 119.673 47.1307 119.643C47.6659 119.617 48.174 119.401 48.5617 119.032C50.1874 117.451 49.0484 115.011 46.8905 115.063C44.6146 115.121 44.1403 118.002 45.882 119.289Z" fill="white"/>
</g>
<g opacity="0.3">
<path d="M84.5769 97.3569C84.3076 97.263 84.0415 97.164 83.7785 97.0671C82.1549 96.4742 80.4806 95.8637 77.1672 95.8637C75.9518 95.8473 74.7379 95.951 73.5431 96.1731C73.6033 94.8319 73.5718 93.4883 73.4488 92.1514C72.6193 92.0753 71.798 91.9283 70.9938 91.7121C69.9583 90.5561 71.1305 88.1679 72.1131 85.4156C71.614 83.6371 71.0193 81.8477 70.329 80.0472C67.4142 79.379 64.2613 82.8201 63.8916 86.5901C61.0441 82.2787 62.1199 77.1444 65.4334 73.8662L65.4707 73.8301H75.4172C75.6251 73.8297 75.8328 73.8445 76.0385 73.8744C76.2388 73.9051 76.4367 73.9495 76.6308 74.0075C77.2144 74.1822 77.7537 74.4796 78.2122 74.8795C78.6707 75.2793 79.0378 75.7725 79.2888 76.3256C79.5207 76.8398 79.7465 77.3554 79.966 77.8724C80.1834 78.388 80.3946 78.9036 80.5976 79.4109C80.8244 79.9863 81.0418 80.5618 81.251 81.133C81.5119 81.8549 81.7532 82.5664 81.9862 83.28C82.0617 83.5182 82.1373 83.7564 82.2098 83.9905C82.4431 84.7529 82.6599 85.5118 82.8601 86.2674C83.3043 87.9317 83.6584 89.5878 83.9359 91.2357C83.9359 91.2357 83.9359 91.2357 83.9307 91.2357C84.2701 93.2612 84.4859 95.3054 84.5769 97.3569Z" fill="#1B360E"/>
</g>
<g opacity="0.3">
<path d="M80.5924 79.4096C80.3853 78.894 80.1783 78.3784 79.9608 77.8711C80.1814 78.3826 80.3926 78.8982 80.5924 79.4096Z" fill="#792937"/>
<path d="M80.3057 79.5216C80.1048 79.0122 79.8915 78.4997 79.6771 77.9903L80.2425 77.75C80.4651 78.2656 80.6774 78.7812 80.8793 79.2968L80.3057 79.5216Z" fill="#1B360E"/>
</g>
<g opacity="0.3">
<path d="M80.5925 79.4102C80.8223 79.9856 81.0398 80.5579 81.2458 81.1323C81.0367 80.561 80.8192 79.9856 80.5925 79.4102Z" fill="#792937"/>
<path d="M80.9559 81.2366C80.7488 80.6673 80.5314 80.094 80.3057 79.5217L80.8782 79.2969C81.1092 79.8743 81.3276 80.4498 81.5347 81.0283L80.9559 81.2366Z" fill="#1B360E"/>
</g>
<g opacity="0.3">
<path d="M81.983 83.2798C81.7501 82.5662 81.5088 81.8495 81.2479 81.1328C81.5088 81.8495 81.7532 82.5631 81.983 83.2798Z" fill="#792937"/>
<path d="M81.6911 83.3752C81.426 82.5626 81.1951 81.8851 80.9662 81.2447C80.9667 81.2423 80.9667 81.2399 80.9662 81.2375L81.5451 81.0312V81.0385C81.807 81.7603 82.0545 82.4821 82.2802 83.1895L81.6911 83.3752Z" fill="#1B360E"/>
</g>
<g opacity="0.3">
<path d="M82.857 86.2691C82.6568 85.5129 82.44 84.7539 82.2067 83.9922C82.4459 84.7542 82.6603 85.5101 82.857 86.2691Z" fill="#792937"/>
<path d="M82.5588 86.3447C82.3693 85.6228 82.1518 84.8618 81.9116 84.076L82.5008 83.8945C82.7348 84.6401 82.9481 85.3898 83.1552 86.1869L82.5588 86.3447Z" fill="#1B360E"/>
</g>
<path d="M53.8073 60.5185C51.7789 62.7407 49.3859 64.3617 46.8522 65.6569C44.9656 64.8949 43.9985 60.3308 43.9985 60.3308C43.2136 57.3775 40.3889 56.536 39.1732 57.959C38.7135 58.4953 38.4847 59.3522 38.6783 60.537C38.6956 60.7433 38.7358 60.947 38.7984 61.1444C39.3845 63.0614 41.8737 65.3723 43.1235 66.4468C43.1967 66.5101 43.2523 66.591 43.2851 66.6818C43.318 66.7725 43.3269 66.8702 43.311 66.9654C43.2951 67.0605 43.2549 67.1501 43.1944 67.2254C43.1338 67.3007 43.0549 67.3593 42.9651 67.3955C35.2095 70.4737 27.2117 71.9256 24.8343 78.9625C24.6182 78.583 24.4073 78.2073 24.2016 77.8354C22.2136 74.2262 20.6883 70.8593 19.5555 67.7193V67.7132C19.5369 65.0578 23.1258 64.4484 23.1258 64.4484C26.3885 63.3697 25.263 59.9998 22.0003 61.0784C20.1478 61.8147 17.8253 61.8322 17.8253 61.8322C16.4306 55.6182 16.7371 50.5148 18.0904 46.5189C18.557 46.6346 19.0299 46.7231 19.5069 46.784C24.6448 47.4377 29.2205 44.7649 29.7268 40.8164C29.9339 39.1593 29.4007 37.5393 28.3227 36.1698C30.3792 35.5841 32.4842 35.5243 34.4153 35.9852C38.0467 36.8535 41.0702 39.5666 42.0425 44.109C42.1181 44.0616 42.1947 44.0059 42.2713 43.9657C45.7329 41.8002 49.2482 41.1062 52.1174 41.6197C58.5507 42.7726 61.7461 50.0178 53.8073 60.5185Z" fill="#ADDD19"/>
<g opacity="0.55">
<path d="M22.0821 69.0938V69.1C23.0877 71.8574 24.272 74.547 25.6275 77.1516C25.3092 77.7308 25.0428 78.3367 24.8312 78.9624C22.5325 74.9304 20.8023 71.183 19.5504 67.7223V67.7161C19.5318 65.0608 23.1206 64.4514 23.1206 64.4514C24.5278 63.9873 25.117 63.0964 25.0735 62.3199C27.9023 61.7692 28.7214 64.8174 25.6502 65.8321C25.6523 65.8291 22.0634 66.4416 22.0821 69.0938Z" fill="white"/>
</g>
<g opacity="0.55">
<path d="M38.1595 37.7395C35.9126 36.9042 33.3457 36.8413 30.8461 37.5528C31.924 38.9223 32.4625 40.5433 32.2502 42.1994C31.7439 46.1478 27.1682 48.8207 22.0303 48.1669C21.5533 48.1066 21.0803 48.0181 20.6138 47.9019C19.3785 51.5482 19.015 56.1164 20.0236 61.6117C19.2964 61.7404 18.5605 61.8142 17.8222 61.8324C16.4274 55.6184 16.7339 50.515 18.0873 46.5191C18.5539 46.6348 19.0268 46.7233 19.5038 46.7841C24.6417 47.4379 29.2174 44.765 29.7237 40.8166C29.9308 39.1594 29.3975 37.5394 28.3196 36.17C31.8215 35.1759 35.4643 35.6997 38.1595 37.7395Z" fill="white"/>
</g>
<g opacity="0.35">
<path d="M34.9921 49.0055C34.6307 49.7108 34.9652 50.6348 35.6134 51.0978C36.2616 51.5608 37.1272 51.6227 37.9017 51.4443C38.6763 51.2659 39.3824 50.8751 40.0762 50.4884L47.7075 46.2316C48.394 45.849 49.0919 45.4572 49.6262 44.8828C50.1605 44.3084 50.5146 43.5123 50.3655 42.743C50.2164 41.9738 49.4501 41.3159 48.6766 41.4592C43.3472 42.4543 37.4575 44.195 34.9921 49.0055Z" fill="white"/>
</g>
<g opacity="0.35">
<path d="M28.9782 61.2065C29.5187 61.9768 30.7323 62.1655 31.483 61.5963C32.0007 61.2044 32.2554 60.5651 32.4884 59.966C33.1248 58.3119 33.7623 56.6575 34.4009 55.0028C34.6483 54.3614 34.8937 53.6282 34.5904 53.0105C34.2145 52.2464 33.2091 52.066 32.3548 52.0876C30.229 54.4635 29.1449 58.0242 28.9782 61.2065Z" fill="white"/>
</g>
<path d="M24.8312 80.0162C24.6443 80.0163 24.4607 79.9671 24.2991 79.8734C24.1376 79.7797 24.0039 79.645 23.9117 79.4831C21.6751 75.5645 19.8735 71.7244 18.5564 68.076C18.5121 67.9527 18.4911 67.8223 18.4942 67.6914C18.489 64.9597 21.1864 63.7336 22.8576 63.4253C23.6177 63.1582 23.9521 62.7674 24.0101 62.4859C24.0263 62.4204 24.0237 62.3517 24.0024 62.2876C23.9812 62.2236 23.9422 62.1668 23.89 62.1239C23.6694 61.929 23.1527 61.8146 22.3575 62.0703C20.4813 62.8066 18.2478 62.8788 17.8792 62.8849C17.6284 62.8989 17.3808 62.8236 17.1807 62.6725C16.9806 62.5213 16.8409 62.3042 16.7868 62.06C15.4407 56.0687 15.5442 50.7261 17.0819 46.1795C17.1668 45.9292 17.343 45.7197 17.5756 45.5926C17.8082 45.4654 18.0802 45.4298 18.3379 45.4928C18.7649 45.5984 19.1978 45.6792 19.6343 45.7351C24.1902 46.3095 28.2389 44.046 28.6707 40.6822C28.8405 39.3571 28.4304 38.0217 27.484 36.8194C27.3768 36.6834 27.3048 36.5233 27.2744 36.3531C27.2441 36.183 27.2562 36.008 27.3099 35.8436C27.3635 35.6792 27.4569 35.5305 27.5819 35.4105C27.7069 35.2906 27.8596 35.2032 28.0266 35.156C31.4685 34.1764 35.0449 34.5744 37.8386 36.2481C40.1549 37.635 41.8147 39.7758 42.6969 42.4899C48.2014 39.4819 54.0724 39.7191 57.3289 43.2025C61.0979 47.2365 60.0977 53.9444 54.6533 61.1453C54.6326 61.1711 54.6119 61.1969 54.5901 61.2206C52.6828 63.3108 50.3096 65.067 47.3357 66.5828C47.1997 66.6518 47.0504 66.6909 46.8979 66.6977C46.7454 66.7044 46.5931 66.6786 46.4515 66.622C44.1838 65.7063 43.1629 61.4804 42.9661 60.5647C42.4867 58.7942 41.1883 58.193 40.4593 58.3518C39.5036 58.558 39.6516 59.9388 39.72 60.3585C39.725 60.3879 39.7285 60.4175 39.7303 60.4472C39.8142 61.564 41.3777 63.5532 43.81 65.6382C44.0214 65.8192 44.1824 66.0514 44.2775 66.3124C44.3725 66.5734 44.3984 66.8544 44.3526 67.1282C44.3068 67.4021 44.1909 67.6596 44.016 67.8758C43.8412 68.092 43.6133 68.2597 43.3544 68.3626C41.9048 68.937 40.4552 69.4568 39.0418 69.959C32.9077 72.1441 27.6093 74.0322 25.8346 79.2882C25.7694 79.4811 25.6496 79.651 25.4895 79.7775C25.3295 79.9039 25.1361 79.9815 24.9327 80.0008C24.8992 80.008 24.8653 80.0131 24.8312 80.0162ZM20.6169 67.5521C21.7693 70.6594 23.1427 73.6809 24.7266 76.5937C27.3515 71.8955 32.6996 69.994 38.3283 67.9842C39.4735 67.5717 40.6508 67.1593 41.8178 66.7086C39.8794 64.9628 37.8044 62.656 37.6242 60.6627C37.1935 57.9094 38.6421 56.5915 40.0203 56.2997C41.8841 55.9078 44.2656 57.2061 45.0184 60.0605C45.0236 60.077 45.0277 60.0945 45.0319 60.1121C45.3332 61.5289 46.0922 63.6748 46.8957 64.4431C49.3808 63.1159 51.373 61.6083 52.9883 59.847C58.5797 52.4224 58.0982 47.1293 55.7757 44.6441C52.9852 41.6598 47.5708 41.8052 42.6079 44.9988C42.4638 45.0914 42.2992 45.1478 42.1284 45.163C41.9576 45.1783 41.7856 45.1521 41.6273 45.0865C41.4689 45.021 41.3289 44.9182 41.2192 44.7869C41.1096 44.6555 41.0335 44.4997 40.9977 44.3327C40.4013 41.5371 38.9268 39.3685 36.7441 38.0589C34.8254 36.9101 32.4345 36.4997 30.0136 36.8771C30.6716 38.1295 30.9337 39.5509 30.7654 40.9545C30.1855 45.4732 25.0704 48.5616 19.3619 47.8336C19.1776 47.8102 18.9916 47.7824 18.8038 47.75C17.7269 51.5108 17.6783 55.8687 18.6599 60.7308C19.4365 60.6617 20.6076 60.4957 21.6006 60.1017L21.6586 60.0811C23.0937 59.6057 24.417 59.7718 25.2899 60.5503C25.6202 60.8388 25.8674 61.2098 26.0059 61.625C26.1444 62.0403 26.1692 62.4848 26.0779 62.9128C25.8428 64.0471 24.885 64.9752 23.4509 65.4505C23.4003 65.4674 23.3483 65.4801 23.2956 65.4887C23.278 65.4908 20.7577 65.9548 20.6169 67.5521Z" fill="#1B360E"/>
<path d="M42.5199 45.0492C41.7066 45.4647 40.9218 45.9332 40.1704 46.4516C39.7832 46.7094 39.4125 46.9951 39.0314 47.2663L37.9359 48.1418C36.4982 49.3501 35.1953 50.7092 34.0499 52.1954C33.4483 52.9173 32.9668 53.7288 32.4408 54.5115C32.0059 55.3426 31.4944 56.1439 31.1516 57.0245C30.3326 58.7332 29.8718 60.5811 29.4763 62.4414L29.4711 62.463C29.455 62.5392 29.4099 62.6062 29.3452 62.6498C29.2805 62.6935 29.2014 62.7104 29.1244 62.697C29.0474 62.6836 28.9787 62.641 28.9327 62.5781C28.8867 62.5152 28.867 62.437 28.8778 62.3599C29.1553 60.4347 29.5084 58.4888 30.2415 56.6584C30.5407 55.7169 31.0139 54.8497 31.4167 53.9464C31.9106 53.0936 32.3652 52.2098 32.945 51.4076C34.0521 49.7591 35.3345 48.2344 36.77 46.86L37.8728 45.8536C38.259 45.538 38.6338 45.209 39.0314 44.9048C39.8311 44.2726 40.6732 43.6956 41.5517 43.1776C41.6718 43.1047 41.8051 43.0564 41.9441 43.0354C42.0831 43.0144 42.2249 43.0211 42.3612 43.0552C42.4975 43.0894 42.6257 43.1501 42.7382 43.2341C42.8507 43.318 42.9453 43.4234 43.0165 43.5441C43.0876 43.6648 43.134 43.7984 43.1528 43.9372C43.1716 44.0759 43.1625 44.217 43.126 44.3521C43.0895 44.4873 43.0264 44.614 42.9403 44.7246C42.8542 44.8352 42.7468 44.9277 42.6244 44.9966C42.6057 45.0079 42.5863 45.0183 42.5665 45.0276L42.5199 45.0492Z" fill="#1B360E"/>
<g opacity="0.3">
<path d="M42.2651 43.9675C42.2496 44.0892 42.233 44.215 42.2144 44.3366C35.633 47.8623 30.666 54.3393 29.1677 61.6319C28.7172 61.1276 28.0773 60.5553 27.7543 59.9582C27.1989 58.9226 26.8597 57.7857 26.7572 56.616C26.6547 55.4464 26.791 54.2682 27.1579 53.1523C28.711 48.512 33.9587 45.8185 35.399 41.1471C35.6651 40.283 35.7873 39.3539 35.5833 38.4753C35.3793 37.5967 34.8078 36.7707 33.9763 36.4129C34.1223 36.2737 34.2652 36.1314 34.4112 35.9922C38.0425 36.8605 41.0661 39.5735 42.0384 44.116C42.1119 44.0644 42.1885 44.0118 42.2651 43.9675Z" fill="#1B360E"/>
</g>
<g opacity="0.3">
<path d="M53.8073 60.518C51.7789 62.7402 49.386 64.3613 46.8522 65.6565C44.9656 64.8944 43.9985 60.3303 43.9985 60.3303C43.2136 57.377 40.3889 56.5355 39.1733 57.9586C39.1432 57.8843 39.1184 57.8152 39.0915 57.742C40.3278 55.7497 42.7497 54.8547 45.036 54.3112C47.3223 53.7678 49.7556 53.3697 51.607 51.9292C52.3827 51.3264 53.0188 50.5641 53.4719 49.6943C53.925 48.8245 54.1845 47.8676 54.2327 46.8889C54.2808 45.9102 54.1165 44.9327 53.751 44.0229C53.3854 43.1132 52.8272 42.2926 52.1144 41.6172C58.5508 42.7721 61.7462 50.0173 53.8073 60.518Z" fill="#1B360E"/>
</g>
<g opacity="0.3">
<path d="M42.9651 67.3954C35.2096 70.4736 27.2117 71.9255 24.8343 78.9624C24.6182 78.5829 24.4074 78.2072 24.2017 77.8353C24.4658 75.8334 25.1793 73.9164 26.2891 72.2266C27.5151 70.3705 29.1884 68.8432 30.8348 67.3439C32.7742 65.5774 35.4705 61.9744 38.0933 61.2516C38.3233 61.189 38.5601 61.1543 38.7984 61.1484C39.3845 63.0654 41.8737 65.3764 43.1235 66.4509C43.1957 66.5142 43.2505 66.5949 43.2827 66.6852C43.3149 66.7755 43.3235 66.8724 43.3077 66.967C43.2918 67.0615 43.2521 67.1504 43.1921 67.2254C43.1322 67.3003 43.0541 67.3589 42.9651 67.3954Z" fill="#1B360E"/>
</g>
<path d="M96.8594 94.1242C95.768 90.2613 92.9247 88.6506 89.2281 88.1504C88.9805 88.1185 88.75 88.0073 88.5712 87.8336C88.3925 87.6599 88.2753 87.4331 88.2372 87.1873C87.5352 82.6108 82.8818 82.4087 83.3571 86.8707C83.3759 87.023 83.3639 87.1775 83.3217 87.3251C83.2795 87.4727 83.208 87.6104 83.1115 87.73C83.015 87.8496 82.8953 87.9487 82.7597 88.0214C82.624 88.0942 82.4751 88.1391 82.3217 88.1535C80.405 88.3226 78.4159 88.5784 76.432 88.831C76.0447 88.8795 75.6554 88.9187 75.265 88.9424C74.8301 88.9754 74.3973 88.9908 73.9624 88.9908C72.5788 89.0001 71.2 88.8267 69.862 88.4752C68.6195 87.0903 70.5486 83.938 71.525 80.5165C71.8605 79.3337 71.438 78.0509 70.4212 77.3559C67.2382 75.1697 63.1803 79.045 62.7588 83.3533C57.5381 75.443 65.5162 64.7629 76.2829 67.8523C78.0338 61.4424 82.1456 58.1446 86.6923 57.4073C87.8054 57.2269 88.9599 57.3351 89.9581 57.8559C92.1253 58.982 92.3707 61.2434 90.9377 64.4896C89.6558 68.1813 94.7957 70.2891 95.3249 65.4713C95.2337 63.0531 95.3943 60.934 97.5138 61.1557C98.0632 61.2177 98.5892 61.412 99.0463 61.7219C99.331 61.9113 99.5902 62.1362 99.8177 62.3911C105.415 68.5824 107.109 79.9431 96.8594 94.1242Z" fill="#ADDD19"/>
<g opacity="0.55">
<path d="M73.7181 81.55C72.8752 84.5034 71.3241 87.2525 71.7103 88.8426C71.0873 88.7585 70.4703 88.6349 69.8631 88.4724C68.6205 87.0875 70.5496 83.9352 71.526 80.5136C71.6641 80.0409 71.6795 79.5411 71.5708 79.0609C71.4622 78.5806 71.233 78.1356 70.9047 77.7676C71.5214 77.8167 72.1134 78.0305 72.6184 78.3863C73.6269 79.0834 74.0504 80.3631 73.7181 81.55Z" fill="white"/>
</g>
<g opacity="0.55">
<path d="M89.9571 57.8532C90.2644 58.0095 90.5493 58.2062 90.8041 58.4379C90.1682 58.3322 89.5192 58.3322 88.8833 58.4379C84.3366 59.1752 80.2217 62.472 78.4739 68.8829C69.3039 66.2513 62.1531 73.6099 63.466 80.7417C63.0889 81.5679 62.8497 82.4498 62.7578 83.3527C57.537 75.4424 65.5152 64.7622 76.2819 67.8517C78.0328 61.4418 82.1446 58.144 86.6913 57.4067C87.8002 57.2242 88.9589 57.3325 89.9571 57.8532Z" fill="white"/>
</g>
<g opacity="0.55">
<path d="M99.6168 62.1829C97.579 62.0261 97.4248 64.1195 97.5159 66.5036C97.1442 69.8973 94.4799 69.855 93.3917 68.2411C94.2956 68.0906 95.1271 67.2564 95.3238 65.4683C95.2327 63.0501 95.3932 60.931 97.5128 61.1527C98.3102 61.2515 99.0512 61.6143 99.6168 62.1829Z" fill="white"/>
</g>
<path d="M76.4692 66.8139C78.8872 67.3246 81.2273 68.1493 83.4296 69.2671C85.6223 70.3681 87.658 71.7553 89.4828 73.3919C91.311 75.0222 92.8563 76.942 94.0564 79.0738C95.2431 81.2037 96.0047 83.5421 96.2992 85.9602C96.3087 86.0503 96.2829 86.1407 96.2271 86.2123C96.1713 86.284 96.0899 86.3314 95.9999 86.3447C95.9098 86.358 95.8181 86.3362 95.7438 86.2837C95.6696 86.2313 95.6185 86.1523 95.6013 86.0633C95.2075 83.7741 94.3728 81.5825 93.1431 79.609C91.9106 77.6535 90.3625 75.9139 88.5613 74.4602C84.9617 71.5588 80.6661 69.6397 76.0965 68.8918H76.0882C75.8109 68.8482 75.5625 68.6966 75.3974 68.4706C75.2324 68.2445 75.1642 67.9624 75.208 67.6863C75.2518 67.4102 75.404 67.1628 75.631 66.9984C75.858 66.834 76.1413 66.7662 76.4185 66.8098C76.4355 66.8101 76.4524 66.8115 76.4692 66.8139Z" fill="#1B360E"/>
<path d="M96.8594 95.1774C96.7979 95.1779 96.7366 95.1727 96.6761 95.1619C96.4799 95.1272 96.2975 95.0382 96.1497 94.9051C96.0019 94.7719 95.8948 94.6001 95.8405 94.4091C94.9779 91.3568 92.8325 89.6996 89.0862 89.1944C88.6117 89.1333 88.1701 88.92 87.828 88.5868C87.486 88.2536 87.2621 87.8186 87.1903 87.3475C86.8921 85.3975 85.8007 84.6117 85.1588 84.6963C84.5872 84.7695 84.2859 85.5986 84.4091 86.7587C84.4425 87.0534 84.4161 87.3518 84.3315 87.6361C84.2468 87.9204 84.1056 88.1849 83.9162 88.4138C83.7317 88.6389 83.5036 88.8248 83.2455 88.9603C82.9874 89.0959 82.7045 89.1783 82.4138 89.2026C80.5707 89.3656 78.6188 89.6151 76.7312 89.8543L76.5645 89.876C74.0452 90.1936 71.6792 90.0575 69.5824 89.4893C69.3852 89.4355 69.2076 89.3263 69.0709 89.1748C67.7704 87.7239 68.5822 85.5708 69.5213 83.0763C69.8682 82.1534 70.2285 81.1985 70.5061 80.226C70.6161 79.8623 70.6091 79.4735 70.486 79.114C70.3629 78.7544 70.1298 78.4423 69.8196 78.2214C69.0419 77.6872 68.1773 77.6336 67.2475 78.0647C65.481 78.8824 64.0376 81.1479 63.8119 83.4527C63.7907 83.6697 63.7025 83.8748 63.5594 84.0398C63.4162 84.2048 63.2253 84.3215 63.0128 84.3739C62.8002 84.4262 62.5766 84.4117 62.3728 84.3322C62.1689 84.2527 61.9949 84.1123 61.8745 83.9301C59.2859 80.0116 59.4609 75.1649 62.327 71.2938C64.7168 68.061 69.3981 65.2324 75.558 66.5802C77.4105 60.9086 81.3617 57.2025 86.5204 56.3631C87.9483 56.1311 89.3068 56.3239 90.4489 56.9179C92.292 57.8779 94.0409 60.0362 91.9244 64.8684C91.5527 65.9811 92.0373 66.6214 92.264 66.8462C92.583 67.1618 93.0075 67.2907 93.3409 67.1721C93.812 67.0061 94.1465 66.3719 94.2635 65.4263C94.2014 63.7062 94.2428 61.8058 95.3528 60.7715C95.9326 60.2322 96.6989 60.0063 97.6246 60.1053C98.7294 60.2208 99.7866 60.7818 100.603 61.6841C106.246 67.927 108.452 79.8888 97.7188 94.7401C97.6204 94.8755 97.4913 94.9857 97.3419 95.0617C97.1925 95.1377 97.0271 95.1773 96.8594 95.1774ZM85.2468 82.5834C86.9335 82.5834 88.8284 84.0631 89.285 87.0278C89.2891 87.0487 89.2999 87.0677 89.3158 87.0818C89.3317 87.096 89.3518 87.1045 89.373 87.1062C93.1649 87.6218 95.7193 89.1923 97.1234 91.9002C108.149 75.465 101.425 65.7418 99.0318 63.0937C98.5658 62.5781 97.9891 62.2616 97.4051 62.2007C96.9691 62.1564 96.8418 62.2729 96.8004 62.311C96.2826 62.7916 96.3582 64.7766 96.3862 65.4294C96.3898 65.4805 96.3898 65.5319 96.3862 65.583C96.1118 68.0775 94.8092 68.8942 94.0574 69.1592C92.9433 69.5511 91.6894 69.2376 90.7833 68.3415C89.7137 67.2835 89.401 65.714 89.9467 64.1425C89.956 64.1146 89.9664 64.0888 89.9778 64.063C91.7784 59.9836 90.1072 59.1133 89.4787 58.7864C88.5468 58.3038 87.5496 58.3337 86.8714 58.4441C82.2046 59.203 78.8094 62.6421 77.3142 68.126C77.2772 68.2608 77.2138 68.3871 77.1274 68.4973C77.0411 68.6075 76.9336 68.6996 76.8113 68.7681C76.6889 68.8366 76.5541 68.8802 76.4147 68.8963C76.2753 68.9125 76.134 68.9009 75.9991 68.8622C70.3839 67.2515 66.1395 69.7078 64.0407 72.5446C62.2908 74.9102 61.773 77.714 62.5124 80.3034C63.3469 78.4534 64.7386 76.9066 66.3653 76.1538C67.9754 75.4083 69.6332 75.5248 71.031 76.4848C71.7055 76.9557 72.215 77.6252 72.4878 78.3993C72.7606 79.1733 72.7831 80.013 72.5521 80.8004C72.2508 81.8584 71.876 82.8535 71.5167 83.8156C70.9989 85.1861 70.3777 86.8567 70.5578 87.5579C72.2881 87.9703 74.2368 88.0446 76.3118 87.7847L76.4775 87.7641C78.3848 87.5207 80.3574 87.2691 82.2409 87.1031C82.2514 87.1028 82.2617 87.1003 82.2712 87.0956C82.2807 87.091 82.2891 87.0844 82.2957 87.0763C82.3157 87.0493 82.3243 87.0156 82.3195 86.9824C82.0255 84.2261 83.4047 82.7989 84.902 82.6061C85.0163 82.5913 85.1315 82.5837 85.2468 82.5834Z" fill="#1B360E"/>
<g opacity="0.35">
<path d="M79.9701 72.1624C80.6836 72.3914 81.4198 72.6976 81.8692 73.2916C82.3185 73.8856 82.3682 74.8456 81.7822 75.3117C81.2386 75.7448 80.4485 75.587 79.7755 75.4086L74.4781 74C73.9666 73.8639 73.4105 73.6969 73.1196 73.2565C72.1877 71.8521 74.2762 71.4004 75.2184 71.4004C76.832 71.4126 78.4343 71.6696 79.9701 72.1624Z" fill="white"/>
</g>
<g opacity="0.35">
<path d="M84.0654 77.9763C86.2926 79.6366 87.2256 76.4182 85.1132 75.3086C83.0009 74.199 82.5194 76.8255 84.0654 77.9763Z" fill="white"/>
</g>
<g opacity="0.3">
<path d="M96.8594 94.1241C95.768 90.2613 92.9247 88.6506 89.2281 88.1504C88.9805 88.1185 88.7499 88.0073 88.5712 87.8336C88.3925 87.6599 88.2753 87.4331 88.2372 87.1873C87.5351 82.6108 82.8818 82.4087 83.3571 86.8707C83.3759 87.023 83.3639 87.1775 83.3217 87.3251C83.2795 87.4727 83.208 87.6104 83.1115 87.73C83.0149 87.8496 82.8953 87.9487 82.7596 88.0214C82.624 88.0942 82.475 88.1391 82.3216 88.1535C80.405 88.3226 78.4159 88.5784 76.432 88.831C76.0447 88.8795 75.6554 88.9187 75.265 88.9424C76.9041 87.5399 78.186 85.7302 78.7659 83.7699C79.353 81.789 81.6652 80.4938 83.6677 81.0238C84.4599 81.23 85.1702 81.6776 85.9457 81.9333C86.7213 82.1891 87.6666 82.2252 88.2827 81.6889C89.1473 80.9362 88.99 79.4554 89.8276 78.6717C90.511 78.0364 91.648 78.1272 92.437 78.6273C93.2757 79.1614 93.9934 79.8638 94.5441 80.6897C96.0422 79.7277 97.3342 78.4798 98.3456 77.0181C99.357 75.5563 100.068 73.9097 100.437 72.173C100.806 70.4363 100.827 68.6441 100.497 66.8995C100.167 65.155 99.4941 63.4927 98.5161 62.0085C98.6922 61.9054 98.8672 61.8095 99.0453 61.7188C99.33 61.9082 99.5892 62.1331 99.8167 62.388C105.415 68.5824 107.109 79.9431 96.8594 94.1241Z" fill="#1B360E"/>
</g>
<path d="M80.227 61.4794C81.2624 58.8045 80.3305 56.672 78.4284 54.8086C78.3011 54.6843 78.2174 54.5225 78.1898 54.3472C78.1622 54.1718 78.1921 53.9922 78.2751 53.8351C79.8407 50.9168 77.2656 48.8184 75.6192 51.5737C75.564 51.6684 75.4903 51.7511 75.4027 51.8172C75.315 51.8832 75.215 51.9312 75.1085 51.9584C75.002 51.9855 74.8911 51.9913 74.7824 51.9754C74.6736 51.9594 74.5691 51.9221 74.475 51.8655C73.3049 51.1437 72.0572 50.4435 70.8136 49.7423C70.5713 49.6052 70.3311 49.4608 70.0981 49.3092C69.8341 49.1422 69.5804 48.9668 69.3319 48.7812C68.5364 48.1965 67.8222 47.5092 67.2082 46.7374C67.0932 45.4144 69.5504 44.4347 71.5809 42.8931C71.9246 42.6352 72.1791 42.277 72.309 41.8684C72.4389 41.4598 72.4378 41.021 72.3057 40.6131C71.4235 38.0052 67.4391 38.493 65.3444 40.7791C65.7585 34.0279 74.912 31.3179 79.7444 37.6752C83.501 34.7539 87.2711 34.6208 90.1901 36.1367C90.9035 36.5079 91.5175 37.0648 91.8654 37.7866C92.6213 39.3551 91.7898 40.7534 89.574 41.999C87.2546 43.5644 89.2892 46.9612 91.6625 44.4306C92.6503 43.0086 93.6526 41.8639 94.7689 42.8951C95.0565 43.1651 95.2739 43.5006 95.4025 43.8727C95.4835 44.1022 95.535 44.3409 95.5558 44.5832C96.1004 50.5136 92.1864 57.7351 80.227 61.4794Z" fill="#ADDD19"/>
<g opacity="0.55">
<path d="M72.3896 44.4195C70.6376 45.7508 68.5677 46.6623 68.1059 47.7369C67.7859 47.4229 67.486 47.0892 67.2082 46.7376C67.0932 45.4146 69.5504 44.4349 71.5809 42.8933C71.8627 42.6809 72.0859 42.4009 72.2296 42.0794C72.3734 41.7579 72.4331 41.4054 72.4031 41.0547C72.7344 41.3463 72.9808 41.7214 73.1165 42.1405C73.2492 42.5484 73.2504 42.9875 73.1201 43.3961C72.9897 43.8048 72.7343 44.1626 72.3896 44.4195Z" fill="white"/>
</g>
<g opacity="0.55">
<path d="M91.9876 38.0629C92.096 38.2832 92.1744 38.517 92.2206 38.7579C91.9019 38.427 91.5303 38.151 91.1209 37.9412C88.202 36.4244 84.4309 36.5574 80.6753 39.4798C76.5604 34.065 69.306 35.2271 66.9938 39.8644C66.4229 40.1762 65.907 40.5789 65.4666 41.0565C65.8807 34.3052 75.0341 31.5952 79.8666 37.9526C83.6232 35.0312 87.3933 34.8982 90.3122 36.414C91.0257 36.7853 91.6407 37.339 91.9876 38.0629Z" fill="white"/>
</g>
<g opacity="0.55">
<path d="M95.6303 44.7128C94.5317 43.7549 93.5439 44.8871 92.5705 46.2895C90.8993 48.0725 89.3938 46.9134 89.4642 45.5254C90.0461 45.8245 90.8807 45.7018 91.7618 44.7623C92.7486 43.3403 93.752 42.1957 94.8682 43.2269C95.2825 43.623 95.5509 44.1464 95.6303 44.7128Z" fill="white"/>
</g>
<path d="M80.52 36.9589C81.6883 38.311 82.6731 39.8101 83.4493 41.4178C84.2255 43.008 84.7858 44.694 85.1153 46.4315C85.4478 48.1656 85.4908 49.9425 85.2427 51.6906C84.9874 53.4292 84.3971 55.1022 83.5041 56.6176C83.4587 56.6979 83.3834 56.7573 83.2945 56.7829C83.2056 56.8085 83.1102 56.7983 83.0287 56.7545C82.9473 56.7107 82.8864 56.6368 82.8591 56.5487C82.8318 56.4606 82.8404 56.3654 82.8829 56.2835C83.6194 54.8125 84.0625 53.2131 84.1875 51.5741C84.3053 49.947 84.1517 48.3117 83.733 46.7346C82.9 43.591 81.2583 40.7181 78.9699 38.3995L78.9637 38.3933C78.8631 38.2954 78.7831 38.1785 78.7284 38.0495C78.6736 37.9205 78.6452 37.7819 78.6448 37.6418C78.6445 37.5017 78.6721 37.363 78.7261 37.2337C78.7801 37.1044 78.8595 36.9871 78.9595 36.8886C79.0596 36.7901 79.1783 36.7125 79.3088 36.6602C79.4392 36.6079 79.5788 36.5821 79.7195 36.5841C79.8601 36.5861 79.9989 36.616 80.1278 36.6721C80.2567 36.7281 80.3731 36.8091 80.4703 36.9104L80.52 36.9589Z" fill="#1B360E"/>
<path d="M80.2269 62.5342C80.0551 62.5341 79.8859 62.4924 79.7339 62.4126C79.5819 62.3328 79.4517 62.2174 79.3546 62.0762C79.2574 61.9351 79.1962 61.7725 79.1763 61.6026C79.1563 61.4327 79.1783 61.2604 79.2401 61.1008C80.0198 59.0858 79.5414 57.3782 77.6869 55.5612C77.3964 55.279 77.2057 54.9104 77.1435 54.511C77.0813 54.1115 77.151 53.7028 77.3421 53.3462C77.9282 52.2552 77.689 51.5065 77.4374 51.3663C77.2966 51.2869 76.9196 51.4694 76.5293 52.1191C76.4011 52.3363 76.2304 52.5257 76.0272 52.6759C75.8241 52.8261 75.5927 52.9341 75.3468 52.9935C75.1055 53.0526 74.8548 53.0631 74.6094 53.0243C74.3641 52.9855 74.1289 52.8983 73.9179 52.7677C72.8089 52.083 71.5974 51.4003 70.4263 50.7404L70.2938 50.6651C69.7406 50.3553 69.2076 50.0109 68.6982 49.6339C67.8279 48.9934 67.0469 48.2405 66.3756 47.3952C66.25 47.2345 66.1734 47.0411 66.1551 46.8383C66.0184 45.2719 67.5509 44.2943 69.1724 43.26C69.7626 42.8837 70.3735 42.4949 70.9399 42.0639C71.1089 41.941 71.2351 41.7685 71.3008 41.5707C71.3666 41.3729 71.3685 41.1595 71.3065 40.9605C71.1253 40.4232 70.739 40.1005 70.125 39.9716C68.8825 39.7117 67.1647 40.3675 66.1302 41.4977C65.9828 41.6591 65.7888 41.7709 65.5748 41.8177C65.3609 41.8646 65.1376 41.8442 64.9358 41.7593C64.7341 41.6745 64.5637 41.5293 64.4483 41.3439C64.3328 41.1586 64.2779 40.9421 64.2913 40.7243C64.5035 37.2502 66.765 34.4505 70.1933 33.4183C73.6538 32.3778 77.3711 33.4864 79.9266 36.2531C83.4627 33.8596 87.3363 33.4688 90.6839 35.2105C91.6593 35.7168 92.3997 36.448 92.8263 37.3389C93.3968 38.5258 93.8027 40.8213 90.1424 42.9012C89.6019 43.2817 89.5998 43.7096 89.6247 43.8788C89.6537 44.0788 89.7613 44.2418 89.8908 44.282C90.0575 44.3335 90.4002 44.2273 90.8444 43.7715C91.5837 42.7125 92.4732 41.5967 93.6702 41.4658C94.1206 41.4132 94.8019 41.4915 95.4947 42.1309C96.1502 42.756 96.5494 43.6011 96.615 44.5026C97.1721 50.596 93.2436 58.5269 80.5479 62.4991C80.4433 62.5272 80.3351 62.5391 80.2269 62.5342ZM79.2888 54.1815C81.0563 55.9593 81.8577 57.868 81.6879 59.8778C94.4064 55.2189 94.7284 47.1353 94.5048 44.6852C94.4841 44.3042 94.3234 43.9441 94.0533 43.6736C94.0062 43.6236 93.9495 43.5836 93.8866 43.556C93.7831 43.5694 93.4351 43.7385 92.5353 45.0347C92.5061 45.0771 92.4735 45.1171 92.438 45.1544C91.0474 46.6393 89.751 46.4434 89.2581 46.2887C88.3407 46.003 87.678 45.1966 87.5279 44.1819C87.3529 43.0033 87.8965 41.8628 88.9827 41.1296L89.0562 41.0842C91.5931 39.656 91.1168 38.6671 90.9138 38.2443C90.628 37.6483 90.0968 37.2791 89.7034 37.0749C86.8175 35.5766 83.5134 36.087 80.3977 38.5093C80.2871 38.5953 80.1605 38.6584 80.0252 38.6952C79.8899 38.732 79.7486 38.7417 79.6095 38.7237C79.4704 38.7056 79.3362 38.6602 79.2149 38.5902C79.0935 38.5201 78.9874 38.4267 78.9026 38.3155C76.4765 35.1187 73.1289 34.732 70.8063 35.4281C69.1693 35.921 67.8884 36.9481 67.1377 38.2959C68.2767 37.8349 69.4872 37.6771 70.5599 37.9009C71.9112 38.1835 72.8876 39.028 73.3111 40.2778C73.5148 40.8943 73.5194 41.5588 73.3244 42.178C73.1294 42.7972 72.7446 43.3401 72.2239 43.7303C71.5871 44.2149 70.9099 44.646 70.3135 45.0275C69.6756 45.4338 68.6723 46.0732 68.3585 46.4712C68.8414 47.0148 69.38 47.5066 69.9656 47.9386C70.4035 48.2634 70.8613 48.5606 71.3365 48.8285L71.468 48.9017C72.5863 49.5328 73.746 50.1845 74.828 50.8466C75.9401 49.1451 77.4467 48.9481 78.477 49.5256C79.6802 50.2021 80.3532 52.0479 79.2888 54.1763V54.1815Z" fill="#1B360E"/>
<g opacity="0.35">
<path d="M80.0022 41.7167C80.3128 42.1519 80.6007 42.6448 80.6038 43.1728C80.6069 43.7008 80.2217 44.2741 79.6864 44.2906C79.1883 44.3071 78.8042 43.8781 78.4966 43.4914L76.0706 40.4267C75.8366 40.1308 75.5901 39.7987 75.6129 39.4223C75.6854 38.223 77.0729 38.8531 77.6093 39.2573C78.5277 39.9514 79.3346 40.7807 80.0022 41.7167Z" fill="white"/>
</g>
<g opacity="0.35">
<path d="M79.8469 46.7877C80.4071 48.6871 82.3248 47.2435 81.5927 45.709C80.8606 44.1746 79.4586 45.4719 79.8469 46.7877Z" fill="white"/>
</g>
<g opacity="0.3">
<path d="M80.227 61.4792C81.2624 58.8043 80.3305 56.6717 78.4284 54.8084C78.3011 54.6841 78.2174 54.5223 78.1898 54.347C78.1622 54.1716 78.1921 53.992 78.2751 53.8349C79.8407 50.9166 77.2656 48.8182 75.6192 51.5735C75.564 51.6682 75.4903 51.7509 75.4027 51.817C75.315 51.883 75.215 51.931 75.1085 51.9582C75.002 51.9853 74.8911 51.9911 74.7824 51.9752C74.6736 51.9592 74.5691 51.9219 74.475 51.8653C73.3049 51.1435 72.0572 50.4433 70.8136 49.7421C70.5713 49.605 70.3311 49.4606 70.0981 49.309C71.6389 49.2059 73.1496 48.715 74.3249 47.8416C75.5001 46.9682 77.3898 47.2023 78.3093 48.3572C78.6727 48.814 78.8881 49.3719 79.2236 49.8504C79.5591 50.3289 80.083 50.7516 80.666 50.7073C81.484 50.6454 82.0307 49.7308 82.8466 49.64C83.5104 49.5678 84.1223 50.1041 84.3594 50.7259C84.6091 51.3901 84.7174 52.0987 84.6773 52.8068C85.948 52.8947 87.2236 52.7312 88.4306 52.3257C89.6375 51.9202 90.7519 51.2807 91.7095 50.4442C92.6671 49.6077 93.4489 48.5907 94.0099 47.4518C94.5708 46.3129 94.8999 45.0747 94.978 43.8086C95.123 43.8251 95.2648 43.8447 95.4056 43.8694C95.4866 44.0989 95.5381 44.3376 95.5589 44.5799C96.1004 50.5134 92.1864 57.7349 80.227 61.4792Z" fill="#1B360E"/>
</g>
<path d="M59.2372 28.753C58.2339 29.3284 57.0939 29.6202 55.9393 29.711C51.1442 30.0874 47.7965 31.6703 47.2167 35.5672C47.0562 35.33 46.8988 35.0949 46.7476 34.8628C46.0249 33.7546 45.3939 32.6939 44.8548 31.6805C44.8548 31.6805 44.8548 31.6806 44.8548 31.6744C41.2152 24.8509 41.5113 20.1146 43.4497 17.1912C45.9803 21.9821 48.8123 20.2714 47.869 17.9594C47.1618 16.6251 47.2705 15.2783 47.9394 13.9089C49.8592 13.3221 51.9032 13.3851 53.5112 14.0388C53.7833 14.1459 54.0461 14.2749 54.2971 14.4245C55.9725 15.4114 56.922 17.1757 56.2479 19.6155C61.2926 19.9465 64.2685 25.8687 59.2372 28.753Z" fill="#ADDD19"/>
<g opacity="0.55">
<path d="M46.6689 32.9605C46.9226 33.4359 47.1949 33.9205 47.4911 34.4176C47.3641 34.7915 47.2722 35.1765 47.2167 35.5674C46.3622 34.3135 45.5739 33.0162 44.8548 31.6808C44.8548 31.6808 44.8548 31.6808 44.8548 31.6746C41.2152 24.8512 41.5113 20.1149 43.4497 17.1914C43.8166 17.9208 44.2836 18.5958 44.8372 19.1971C43.3037 22.1536 43.3161 26.6702 46.6689 32.9543C46.6658 32.9574 46.6689 32.9574 46.6689 32.9605Z" fill="white"/>
</g>
<g opacity="0.55">
<path d="M49.7504 15.1909C49.0815 16.5552 48.9728 17.9071 49.68 19.2414C50.4814 21.2069 48.5555 22.7372 46.4059 20.2077C47.6546 20.4933 48.4261 19.3343 47.8659 17.9617C47.1587 16.6274 47.2674 15.2806 47.9363 13.9112C50.1853 13.2224 52.6072 13.4296 54.294 14.4268C54.7291 14.6782 55.1205 14.9982 55.4527 15.3745C53.826 14.6753 51.7209 14.5835 49.7504 15.1909Z" fill="white"/>
</g>
<path d="M47.2156 36.6229C47.0423 36.623 46.8717 36.5806 46.7188 36.4995C46.5658 36.4184 46.4353 36.301 46.3386 36.1578C38.9869 25.2952 40.8155 19.2462 42.5623 16.6125C42.6634 16.4595 42.8029 16.3353 42.967 16.2524C43.131 16.1695 43.3139 16.1307 43.4977 16.1397C43.6814 16.1488 43.8596 16.2055 44.0146 16.3041C44.1696 16.4028 44.2961 16.54 44.3816 16.7022C45.5578 18.9286 46.6244 19.3039 46.8739 19.1771C46.9775 19.1307 47.0665 18.8306 46.9019 18.3934C46.1035 16.8466 46.1315 15.1853 46.9847 13.4436C47.0481 13.3139 47.1377 13.1985 47.2478 13.1047C47.3578 13.0108 47.4861 12.9405 47.6246 12.8981C50.7186 11.9494 54.0672 12.5362 55.9517 14.3583C57.1353 15.5019 57.6623 17.026 57.4852 18.7306C60.0739 19.3225 62.1976 21.2477 62.7536 23.6308C63.3097 26.0139 62.1934 28.2712 59.7653 29.6633C58.6884 30.2821 57.4293 30.6481 56.0211 30.7585C49.6552 31.2576 48.5441 33.8284 48.2625 35.7185C48.2244 35.9682 48.098 36.196 47.906 36.3609C47.714 36.5258 47.4691 36.6169 47.2156 36.6177V36.6229ZM43.5553 19.3328C42.3459 22.7646 43.4963 27.537 46.8864 33.1034C48.219 30.4883 51.1793 29.0292 55.8554 28.661C56.9478 28.5765 57.9077 28.3001 58.7092 27.8422C60.3317 26.9142 61.0368 25.587 60.6931 24.1134C60.3224 22.5244 58.6501 20.8301 56.1744 20.6682C56.0177 20.6579 55.8652 20.613 55.7281 20.5367C55.591 20.4605 55.4727 20.3548 55.3817 20.2273C55.2907 20.0999 55.2293 19.9539 55.202 19.7998C55.1747 19.6458 55.1821 19.4877 55.2238 19.3369C55.6204 17.9015 55.3688 16.7373 54.4783 15.8762C53.2357 14.6759 50.9153 14.2541 48.7015 14.7924C48.3225 15.77 48.3567 16.629 48.805 17.4684C48.8206 17.4993 48.8361 17.5313 48.8496 17.5633C49.4512 19.0399 48.9976 20.5238 47.7696 21.093C46.6751 21.5994 45.0919 21.3158 43.5553 19.3328Z" fill="#1B360E"/>
<path d="M56.3732 20.6576C55.9425 20.694 55.5157 20.7672 55.0975 20.8762C54.6564 20.9864 54.2227 21.1241 53.799 21.2887C52.9478 21.6254 52.1547 22.0927 51.4486 22.6736C51.0789 22.9499 50.7776 23.2974 50.4556 23.6305C50.177 23.9956 49.8706 24.3523 49.6521 24.7648C49.3891 25.1557 49.2182 25.5898 49.0308 26.0301C48.8434 26.4704 48.7429 26.9376 48.5918 27.3954L48.5752 27.4439C48.5507 27.5151 48.5002 27.5744 48.4336 27.6102C48.3671 27.6459 48.2895 27.6553 48.2163 27.6366C48.1432 27.6178 48.0797 27.5723 48.0388 27.5091C47.9978 27.4458 47.9823 27.3695 47.9953 27.2954C48.0896 26.7973 48.1351 26.2838 48.2749 25.7888C48.4147 25.2938 48.5493 24.7896 48.7823 24.3204C48.9687 23.8295 49.2534 23.3871 49.5226 22.9303C49.8333 22.5065 50.1366 22.061 50.5177 21.6929C51.2534 20.9127 52.1069 20.2517 53.0473 19.7336C53.5192 19.4743 54.0076 19.2459 54.5094 19.0499C54.761 18.9468 55.0167 18.8602 55.2787 18.7808C55.5551 18.6938 55.8362 18.6222 56.1205 18.5663C56.2573 18.5398 56.3979 18.5404 56.5344 18.5681C56.6709 18.5957 56.8006 18.6499 56.916 18.7274C57.0315 18.805 57.1305 18.9044 57.2074 19.0201C57.2843 19.1358 57.3375 19.2654 57.3641 19.4016C57.3907 19.5377 57.3901 19.6778 57.3623 19.8137C57.3346 19.9496 57.2802 20.0788 57.2023 20.1938C57.1244 20.3088 57.0246 20.4074 56.9084 20.4839C56.7923 20.5605 56.6621 20.6136 56.5254 20.64C56.485 20.6473 56.4446 20.6534 56.4053 20.6565L56.3732 20.6576Z" fill="#1B360E"/>
<g opacity="0.3">
<path d="M59.2372 28.7533C58.2339 29.3287 57.0939 29.6206 55.9393 29.7113C51.1441 30.0877 47.7965 31.6706 47.2167 35.5675C47.0562 35.3303 46.8988 35.0952 46.7476 34.8632C46.8843 34.7673 46.9474 34.6219 46.8656 34.3476C45.5289 29.834 48.2117 27.5417 49.7711 27.2467C50.7351 27.0663 51.7271 27.1209 52.7066 27.0549C53.6862 26.989 54.702 26.7806 55.4672 26.1691C56.5409 25.3112 56.9002 23.6819 56.2862 22.4568C55.6722 21.2318 54.149 20.5357 52.8153 20.8729C53.4078 19.9336 53.7442 18.8567 53.7914 17.7484C53.8386 16.6401 53.595 15.5387 53.0846 14.5527C53.2143 14.3719 53.3558 14.1996 53.5081 14.0371C53.7802 14.1442 54.043 14.2731 54.294 14.4228C55.9693 15.4096 56.9189 17.174 56.2448 19.6138C61.2926 19.9469 64.2685 25.8691 59.2372 28.7533Z" fill="#1B360E"/>
</g>
</g>
<defs>
<clipPath id="clip0_1284_41182">
<rect width="117" height="126" fill="white"/>
</clipPath>
</defs>
</svg>
