<svg width="20" height="20" viewBox="0 0 20 20" fill="none" xmlns="http://www.w3.org/2000/svg">
<g clip-path="url(#clip0_1284_41490)">
<path d="M10 17.5C14.1421 17.5 17.5 14.1421 17.5 10C17.5 5.85786 14.1421 2.5 10 2.5C5.85786 2.5 2.5 5.85786 2.5 10C2.5 14.1421 5.85786 17.5 10 17.5Z" stroke="#5F647E" stroke-width="1.25" stroke-linecap="round" stroke-linejoin="round"/>
<path d="M10 10.834C11.3807 10.834 12.5 9.7147 12.5 8.33398C12.5 6.95327 11.3807 5.83398 10 5.83398C8.61929 5.83398 7.5 6.95327 7.5 8.33398C7.5 9.7147 8.61929 10.834 10 10.834Z" stroke="#5F647E" stroke-width="1.25" stroke-linecap="round" stroke-linejoin="round"/>
<path d="M5.14001 15.7082C5.34627 15.0217 5.76832 14.42 6.34355 13.9923C6.91878 13.5646 7.61655 13.3338 8.33335 13.334H11.6667C12.3844 13.3337 13.083 13.5651 13.6587 13.9938C14.2343 14.4225 14.6562 15.0255 14.8617 15.7132" stroke="#5F647E" stroke-width="1.25" stroke-linecap="round" stroke-linejoin="round"/>
</g>
<defs>
<clipPath id="clip0_1284_41490">
<rect width="20" height="20" fill="white"/>
</clipPath>
</defs>
</svg>
