<svg width="24" height="24" viewBox="0 0 24 24" fill="none" xmlns="http://www.w3.org/2000/svg">
<path d="M12 2C10.0222 2 8.08879 2.58649 6.4443 3.6853C4.79981 4.78412 3.51809 6.3459 2.76121 8.17317C2.00433 10.0004 1.8063 12.0111 2.19215 13.9509C2.578 15.8907 3.53041 17.6725 4.92894 19.0711C6.32746 20.4696 8.10929 21.422 10.0491 21.8079C11.9889 22.1937 13.9996 21.9957 15.8268 21.2388C17.6541 20.4819 19.2159 19.2002 20.3147 17.5557C21.4135 15.9112 22 13.9778 22 12C22 10.6868 21.7413 9.38642 21.2388 8.17317C20.7363 6.95991 19.9997 5.85752 19.0711 4.92893C18.1425 4.00035 17.0401 3.26375 15.8268 2.7612C14.6136 2.25866 13.3132 2 12 2ZM12 20C10.4178 20 8.87104 19.5308 7.55544 18.6518C6.23985 17.7727 5.21447 16.5233 4.60897 15.0615C4.00347 13.5997 3.84504 11.9911 4.15372 10.4393C4.4624 8.88743 5.22433 7.46197 6.34315 6.34315C7.46197 5.22433 8.88743 4.4624 10.4393 4.15372C11.9911 3.84504 13.5997 4.00346 15.0615 4.60896C16.5233 5.21447 17.7727 6.23984 18.6518 7.55544C19.5308 8.87103 20 10.4177 20 12C20 14.1217 19.1572 16.1566 17.6569 17.6569C16.1566 19.1571 14.1217 20 12 20Z" fill="white"/>
<path d="M14.7012 8.38999L10.9212 13.39L9.29116 11.28C9.2104 11.1762 9.10999 11.0894 8.99568 11.0245C8.88136 10.9595 8.75537 10.9178 8.62491 10.9015C8.49444 10.8853 8.36205 10.8949 8.2353 10.9298C8.10854 10.9647 7.98991 11.0242 7.88616 11.105C7.78242 11.1858 7.6956 11.2862 7.63066 11.4005C7.56572 11.5148 7.52393 11.6408 7.50768 11.7713C7.49143 11.9017 7.50103 12.0341 7.53595 12.1609C7.57086 12.2876 7.6304 12.4062 7.71116 12.51L10.1412 15.62C10.2354 15.7398 10.3558 15.8366 10.4931 15.9028C10.6305 15.969 10.7811 16.0029 10.9336 16.0019C11.0861 16.0009 11.2363 15.9651 11.3728 15.8972C11.5093 15.8293 11.6285 15.731 11.7212 15.61L16.2912 9.60999C16.4529 9.39782 16.5238 9.13007 16.4882 8.86564C16.4525 8.60122 16.3133 8.36178 16.1012 8.19999C15.889 8.03821 15.6212 7.96734 15.3568 8.00297C15.0924 8.0386 14.8529 8.17782 14.6912 8.38999H14.7012Z" fill="white"/>
</svg>
