<svg width="20" height="20" viewBox="0 0 20 20" fill="none" xmlns="http://www.w3.org/2000/svg">
<g clip-path="url(#clip0_1284_40222)">
<path d="M5.00004 3.33398H13.3334L16.6667 6.66732V15.0007C16.6667 15.4427 16.4911 15.8666 16.1786 16.1792C15.866 16.4917 15.4421 16.6673 15 16.6673H5.00004C4.55801 16.6673 4.13409 16.4917 3.82153 16.1792C3.50897 15.8666 3.33337 15.4427 3.33337 15.0007V5.00065C3.33337 4.55862 3.50897 4.1347 3.82153 3.82214C4.13409 3.50958 4.55801 3.33398 5.00004 3.33398" stroke="#5F647E" stroke-width="1.5" stroke-linecap="round" stroke-linejoin="round"/>
<path d="M10 13.3333C10.9205 13.3333 11.6667 12.5871 11.6667 11.6667C11.6667 10.7462 10.9205 10 10 10C9.07957 10 8.33337 10.7462 8.33337 11.6667C8.33337 12.5871 9.07957 13.3333 10 13.3333Z" stroke="#5F647E" stroke-width="1.5" stroke-linecap="round" stroke-linejoin="round"/>
<path d="M11.6666 3.33398V6.66732H6.66663V3.33398" stroke="#5F647E" stroke-width="1.5" stroke-linecap="round" stroke-linejoin="round"/>
</g>
<defs>
<clipPath id="clip0_1284_40222">
<rect width="20" height="20" fill="white"/>
</clipPath>
</defs>
</svg>
