<svg width="21" height="20" viewBox="0 0 21 20" fill="none" xmlns="http://www.w3.org/2000/svg">
<g clip-path="url(#clip0_1284_41309)">
<path d="M5.0833 4.16602H15.9166C16.0366 4.20811 16.1454 4.27711 16.2347 4.36774C16.3239 4.45836 16.3912 4.56821 16.4314 4.68887C16.4716 4.80952 16.4837 4.93778 16.4667 5.06382C16.4497 5.18986 16.4041 5.31033 16.3333 5.41602L12.1666 9.99935V15.8327L8.8333 13.3327V9.99935L4.66663 5.41602C4.59588 5.31033 4.55025 5.18986 4.53324 5.06382C4.51623 4.93778 4.5283 4.80952 4.56852 4.68887C4.60874 4.56821 4.67604 4.45836 4.76527 4.36774C4.8545 4.27711 4.96329 4.20811 5.0833 4.16602Z" stroke="#5F647E" stroke-width="1.66667" stroke-linecap="round" stroke-linejoin="round"/>
</g>
<defs>
<clipPath id="clip0_1284_41309">
<rect width="20" height="20" fill="white" transform="translate(0.5)"/>
</clipPath>
</defs>
</svg>
