<svg width="24" height="24" viewBox="0 0 24 24" fill="none" xmlns="http://www.w3.org/2000/svg">
<g clip-path="url(#clip0_1788_6246)">
<path d="M20.2216 13.7028L14.7958 19.1286L12.1292 19.6619L12.6625 16.9952L18.089 11.5694C18.371 11.2874 18.7536 11.1289 19.1524 11.1289C19.5513 11.1289 19.9339 11.2874 20.2159 11.5694L20.2223 11.5758C20.5043 11.858 20.6626 12.2406 20.6624 12.6394C20.6623 13.0383 20.5038 13.4208 20.2216 13.7028Z" stroke="white" stroke-width="1.245" stroke-linecap="round" stroke-linejoin="round"/>
<path d="M7.8623 10.6035H14.2623" stroke="white" stroke-width="1.245" stroke-linecap="round" stroke-linejoin="round"/>
<path d="M7.8623 13.2695H12.129" stroke="white" stroke-width="1.245" stroke-linecap="round" stroke-linejoin="round"/>
<path d="M7.8623 15.9355H9.99564" stroke="white" stroke-width="1.245" stroke-linecap="round" stroke-linejoin="round"/>
<path d="M9.99544 19.6621H5.72877C5.44588 19.6621 5.17457 19.5498 4.97453 19.3497C4.77449 19.1497 4.66211 18.8783 4.66211 18.5954V7.39544C4.66211 7.11255 4.77449 6.84123 4.97453 6.6412C5.17457 6.44116 5.44588 6.32878 5.72877 6.32878H8.39615C8.39615 5.62153 8.6771 4.94325 9.1772 4.44316C9.6773 3.94306 10.3556 3.66211 11.0628 3.66211C11.7701 3.66211 12.4483 3.94306 12.9485 4.44316C13.4485 4.94325 13.7295 5.62153 13.7295 6.32878H16.3961C16.679 6.32878 16.9504 6.44116 17.1504 6.6412C17.3504 6.84123 17.4628 7.11255 17.4628 7.39544V8.99544" stroke="white" stroke-width="1.245" stroke-linecap="round" stroke-linejoin="round"/>
<path d="M11.0626 6.33607C10.9153 6.33607 10.7959 6.21668 10.7959 6.0694C10.7959 5.92212 10.9153 5.80273 11.0626 5.80273" stroke="white" stroke-width="1.245" stroke-linecap="round"/>
<path d="M11.0623 6.33607C11.2095 6.33607 11.3289 6.21668 11.3289 6.0694C11.3289 5.92212 11.2095 5.80273 11.0623 5.80273" stroke="white" stroke-width="1.245" stroke-linecap="round"/>
</g>
<defs>
<clipPath id="clip0_1788_6246">
<rect width="24" height="24" fill="white"/>
</clipPath>
</defs>
</svg>
