<svg width="17" height="13" viewBox="0 0 17 13" fill="none" xmlns="http://www.w3.org/2000/svg">
<path d="M5.86106 13C5.72395 12.9996 5.58838 12.971 5.4628 12.9159C5.33722 12.8609 5.2243 12.7806 5.13106 12.68L0.271062 7.51003C0.0893891 7.31642 -0.00793272 7.05858 0.000506415 6.79321C0.00468505 6.66182 0.034703 6.53253 0.0888462 6.41274C0.142989 6.29294 0.220197 6.18499 0.316062 6.09503C0.411927 6.00508 0.524572 5.93488 0.647564 5.88846C0.770556 5.84204 0.901487 5.8203 1.03288 5.82448C1.29825 5.83292 1.54939 5.94642 1.73106 6.14003L5.85106 10.53L14.2611 1.33003C14.3464 1.22375 14.4526 1.13605 14.5731 1.0723C14.6935 1.00854 14.8258 0.970096 14.9617 0.959312C15.0975 0.948527 15.2342 0.965635 15.3632 1.00958C15.4922 1.05353 15.6109 1.12339 15.7119 1.21488C15.813 1.30636 15.8943 1.41754 15.9508 1.54158C16.0073 1.66561 16.0378 1.79989 16.0406 1.93617C16.0433 2.07245 16.0181 2.20784 15.9666 2.33404C15.9151 2.46024 15.8384 2.57458 15.7411 2.67003L6.60106 12.67C6.5087 12.7724 6.39618 12.8545 6.27055 12.9113C6.14493 12.9681 6.00892 12.9983 5.87106 13H5.86106Z" fill="#4147D5"/>
</svg>
