<svg width="24" height="24" viewBox="0 0 24 24" fill="none" xmlns="http://www.w3.org/2000/svg">
<path d="M5 6.49991C5 5.67147 5.67156 4.99991 6.5 4.99991H9.5C10.3281 4.99991 11 5.67147 11 6.49991V9.49991C11 10.328 10.3281 10.9999 9.5 10.9999H6.5C5.67156 10.9999 5 10.328 5 9.49991V6.49991ZM6 6.49991V9.49991C6 9.77491 6.22375 9.99991 6.5 9.99991H9.5C9.775 9.99991 10 9.77491 10 9.49991V6.49991C10 6.22366 9.775 5.99991 9.5 5.99991H6.5C6.22375 5.99991 6 6.22366 6 6.49991ZM5 14.4999C5 13.6718 5.67156 12.9999 6.5 12.9999H9.5C10.3281 12.9999 11 13.6718 11 14.4999V17.4999C11 18.328 10.3281 18.9999 9.5 18.9999H6.5C5.67156 18.9999 5 18.328 5 17.4999V14.4999ZM6 14.4999V17.4999C6 17.7749 6.22375 17.9999 6.5 17.9999H9.5C9.775 17.9999 10 17.7749 10 17.4999V14.4999C10 14.2249 9.775 13.9999 9.5 13.9999H6.5C6.22375 13.9999 6 14.2249 6 14.4999ZM13 14.4999C13 13.6718 13.6719 12.9999 14.5 12.9999H17.5C18.3281 12.9999 19 13.6718 19 14.4999V17.4999C19 18.328 18.3281 18.9999 17.5 18.9999H14.5C13.6719 18.9999 13 18.328 13 17.4999V14.4999ZM14 14.4999V17.4999C14 17.7749 14.225 17.9999 14.5 17.9999H17.5C17.775 17.9999 18 17.7749 18 17.4999V14.4999C18 14.2249 17.775 13.9999 17.5 13.9999H14.5C14.225 13.9999 14 14.2249 14 14.4999Z" fill="#908F9D"/>
<path fill-rule="evenodd" clip-rule="evenodd" d="M19.182 6.93924C19.7676 7.52482 19.7678 8.47477 19.182 9.06056L17.0607 11.1819C16.4751 11.7675 15.5249 11.7675 14.9393 11.1819L12.818 9.06056C12.2324 8.47499 12.2324 7.52482 12.818 6.93924L14.9393 4.81792C15.5251 4.23213 16.4751 4.23235 17.0607 4.81792L19.182 6.93924ZM16.3536 5.52503L18.4749 7.64635C18.6693 7.84081 18.6702 8.15812 18.4749 8.35346L16.3536 10.4748C16.1591 10.6692 15.8409 10.6692 15.6464 10.4748L13.5251 8.35346C13.3307 8.159 13.3307 7.84081 13.5251 7.64635L15.6464 5.52503C15.8418 5.32969 16.1591 5.33058 16.3536 5.52503Z" fill="#908F9D"/>
<path d="M5 6.49991C5 5.67147 5.67156 4.99991 6.5 4.99991H9.5C10.3281 4.99991 11 5.67147 11 6.49991V9.49991C11 10.328 10.3281 10.9999 9.5 10.9999H6.5C5.67156 10.9999 5 10.328 5 9.49991V6.49991ZM6 6.49991V9.49991C6 9.77491 6.22375 9.99991 6.5 9.99991H9.5C9.775 9.99991 10 9.77491 10 9.49991V6.49991C10 6.22366 9.775 5.99991 9.5 5.99991H6.5C6.22375 5.99991 6 6.22366 6 6.49991ZM5 14.4999C5 13.6718 5.67156 12.9999 6.5 12.9999H9.5C10.3281 12.9999 11 13.6718 11 14.4999V17.4999C11 18.328 10.3281 18.9999 9.5 18.9999H6.5C5.67156 18.9999 5 18.328 5 17.4999V14.4999ZM6 14.4999V17.4999C6 17.7749 6.22375 17.9999 6.5 17.9999H9.5C9.775 17.9999 10 17.7749 10 17.4999V14.4999C10 14.2249 9.775 13.9999 9.5 13.9999H6.5C6.22375 13.9999 6 14.2249 6 14.4999ZM13 14.4999C13 13.6718 13.6719 12.9999 14.5 12.9999H17.5C18.3281 12.9999 19 13.6718 19 14.4999V17.4999C19 18.328 18.3281 18.9999 17.5 18.9999H14.5C13.6719 18.9999 13 18.328 13 17.4999V14.4999ZM14 14.4999V17.4999C14 17.7749 14.225 17.9999 14.5 17.9999H17.5C17.775 17.9999 18 17.7749 18 17.4999V14.4999C18 14.2249 17.775 13.9999 17.5 13.9999H14.5C14.225 13.9999 14 14.2249 14 14.4999Z" stroke="#908F9D" stroke-width="0.5"/>
<path fill-rule="evenodd" clip-rule="evenodd" d="M19.182 6.93924C19.7676 7.52482 19.7678 8.47477 19.182 9.06056L17.0607 11.1819C16.4751 11.7675 15.5249 11.7675 14.9393 11.1819L12.818 9.06056C12.2324 8.47499 12.2324 7.52482 12.818 6.93924L14.9393 4.81792C15.5251 4.23213 16.4751 4.23235 17.0607 4.81792L19.182 6.93924ZM16.3536 5.52503L18.4749 7.64635C18.6693 7.84081 18.6702 8.15812 18.4749 8.35346L16.3536 10.4748C16.1591 10.6692 15.8409 10.6692 15.6464 10.4748L13.5251 8.35346C13.3307 8.159 13.3307 7.84081 13.5251 7.64635L15.6464 5.52503C15.8418 5.32969 16.1591 5.33058 16.3536 5.52503Z" stroke="#908F9D" stroke-width="0.5"/>
</svg>
