<svg id="ic-amis-chamcong" xmlns="http://www.w3.org/2000/svg" xmlns:xlink="http://www.w3.org/1999/xlink" width="40" height="40" viewBox="0 0 40 40">
  <defs>
    <linearGradient id="linear-gradient" x1="0.5" x2="0.5" y2="1" gradientUnits="objectBoundingBox">
      <stop offset="0" stop-color="#fe8c00"/>
      <stop offset="1" stop-color="#f83600"/>
    </linearGradient>
    <filter id="Path_33733" x="16.348" y="17.995" width="19.625" height="19.625" filterUnits="userSpaceOnUse">
      <feOffset dy="1" input="SourceAlpha"/>
      <feGaussianBlur stdDeviation="0.5" result="blur"/>
      <feFlood flood-opacity="0.161"/>
      <feComposite operator="in" in2="blur"/>
      <feComposite in="SourceGraphic"/>
    </filter>
    <filter id="Path_33731" x="5.52" y="10.467" width="13.006" height="25.961" filterUnits="userSpaceOnUse">
      <feOffset dy="1" input="SourceAlpha"/>
      <feGaussianBlur stdDeviation="0.5" result="blur-2"/>
      <feFlood flood-opacity="0.161"/>
      <feComposite operator="in" in2="blur-2"/>
      <feComposite in="SourceGraphic"/>
    </filter>
    <filter id="Path_33732" x="11.027" y="4.185" width="19.896" height="13.969" filterUnits="userSpaceOnUse">
      <feOffset dy="1" input="SourceAlpha"/>
      <feGaussianBlur stdDeviation="0.5" result="blur-3"/>
      <feFlood flood-opacity="0.161"/>
      <feComposite operator="in" in2="blur-3"/>
      <feComposite in="SourceGraphic"/>
    </filter>
    <filter id="Path_33736" x="10.032" y="8.662" width="16.911" height="10.36" filterUnits="userSpaceOnUse">
      <feOffset dy="1" input="SourceAlpha"/>
      <feGaussianBlur stdDeviation="0.5" result="blur-4"/>
      <feFlood flood-opacity="0.161"/>
      <feComposite operator="in" in2="blur-4"/>
      <feComposite in="SourceGraphic"/>
    </filter>
    <filter id="Path_33737" x="13.988" y="13.472" width="8.948" height="9.788" filterUnits="userSpaceOnUse">
      <feOffset dy="1" input="SourceAlpha"/>
      <feGaussianBlur stdDeviation="0.5" result="blur-5"/>
      <feFlood flood-opacity="0.161"/>
      <feComposite operator="in" in2="blur-5"/>
      <feComposite in="SourceGraphic"/>
    </filter>
    <filter id="Path_33741" x="9.998" y="18.616" width="7.562" height="13.397" filterUnits="userSpaceOnUse">
      <feOffset dy="1" input="SourceAlpha"/>
      <feGaussianBlur stdDeviation="0.5" result="blur-6"/>
      <feFlood flood-opacity="0.161"/>
      <feComposite operator="in" in2="blur-6"/>
      <feComposite in="SourceGraphic"/>
    </filter>
  </defs>
  <g id="Group_29954" data-name="Group 29954">
    <path id="App_Icon_Mask-2" data-name="App Icon Mask-2" d="M338.125,1099.509c0-.478,0-.954,0-1.433,0-.4-.007-.8-.018-1.207a17.492,17.492,0,0,0-.23-2.627,8.843,8.843,0,0,0-.823-2.5,8.4,8.4,0,0,0-3.673-3.673,8.863,8.863,0,0,0-2.5-.821,17.55,17.55,0,0,0-2.628-.231c-.4-.01-.8-.015-1.208-.018-.477,0-.955,0-1.433,0H310.638c-.477,0-.955,0-1.433,0-.4,0-.807.007-1.207.018a17.557,17.557,0,0,0-2.628.231,8.865,8.865,0,0,0-2.5.823,8.4,8.4,0,0,0-3.673,3.673,8.857,8.857,0,0,0-.823,2.5,17.6,17.6,0,0,0-.23,2.627q-.016.6-.018,1.207c0,.476,0,.953,0,1.431v14.974c0,.478,0,.954,0,1.433q0,.6.018,1.207a17.6,17.6,0,0,0,.23,2.627,8.87,8.87,0,0,0,.823,2.5,8.413,8.413,0,0,0,3.673,3.672,8.873,8.873,0,0,0,2.5.823,17.557,17.557,0,0,0,2.628.231c.4.01.8.016,1.207.018.477,0,.955,0,1.433,0h14.975c.478,0,.955,0,1.433,0,.4,0,.8-.007,1.207-.018a17.557,17.557,0,0,0,2.628-.231,8.861,8.861,0,0,0,2.5-.823,8.413,8.413,0,0,0,3.673-3.672,8.841,8.841,0,0,0,.823-2.5,17.485,17.485,0,0,0,.23-2.627c.01-.4.016-.8.018-1.207,0-.478,0-.954,0-1.433Z" transform="translate(-298.125 -1086.997)" fill="url(#linear-gradient)"/>
  </g>
  <g id="Group_30036" data-name="Group 30036" transform="translate(7.02 4.685)">
    <path id="Path_33730" data-name="Path 33730" d="M832.862,2219.513v-5.177a.51.51,0,0,0-.2-.4.754.754,0,0,0-1.271.537v5.044a1.835,1.835,0,0,0-.945.945h-3.221a.51.51,0,0,0-.4.2.755.755,0,0,0,.537,1.271h3.089a1.859,1.859,0,0,0,2.593.878,1.55,1.55,0,0,0,.7-.7A1.858,1.858,0,0,0,832.862,2219.513Z" transform="translate(-812.867 -2198.947)" fill="none"/>
    <g transform="matrix(1, 0, 0, 1, -7.02, -4.68)" filter="url(#Path_33733)">
      <path id="Path_33733-2" data-name="Path 33733" d="M836.326,2216.657a7.709,7.709,0,0,0-4.388-4.388,8.38,8.38,0,0,0-10.971,10.97,7.71,7.71,0,0,0,4.388,4.388A8.38,8.38,0,0,0,836.326,2216.657Zm-5.947,4.328a1.551,1.551,0,0,1-.7.7,1.859,1.859,0,0,1-2.593-.878h-3.221a.51.51,0,0,1-.4-.2.754.754,0,0,1,.537-1.271h3.089a1.836,1.836,0,0,1,.945-.946v-5.177a.51.51,0,0,1,.2-.4.754.754,0,0,1,1.271.537v5.045a1.859,1.859,0,0,1,.877,2.594Z" transform="translate(-802.49 -2193.14)" fill="#fff"/>
    </g>
    <path id="Path_33734" data-name="Path 33734" d="M832.369,2205.99c0,.007,0,.026,0,.053Z" transform="translate(-815.932 -2194.811)" fill="none"/>
    <path id="Path_33735" data-name="Path 33735" d="M832.371,2205.98h0v0Z" transform="translate(-815.934 -2194.804)" fill="#fff"/>
    <path id="Path_33738" data-name="Path 33738" d="M815,2234.934a1.215,1.215,0,0,0,.294.138q-.15-.067-.3-.14Z" transform="translate(-806.657 -2210.262)" fill="none"/>
    <path id="Path_33739" data-name="Path 33739" d="M816.246,2232.02q.029.158.064.314A2.4,2.4,0,0,0,816.246,2232.02Z" transform="translate(-807.325 -2208.708)" fill="none"/>
    <path id="Path_33740" data-name="Path 33740" d="M814.825,2229.72l.027.022Z" transform="translate(-806.566 -2207.48)" fill="none"/>
    <g id="Group_30037" data-name="Group 30037" transform="translate(0 0)">
      <g transform="matrix(1, 0, 0, 1, -7.02, -4.68)" filter="url(#Path_33731)">
        <path id="Path_33731-2" data-name="Path 33731" d="M806.515,2216.469a8.939,8.939,0,0,1-7.412-8.841v-5.984a8.9,8.9,0,0,1,1.344-4.729.762.762,0,0,0,.1-.625,1.019,1.019,0,0,0-1.849-.336,10.881,10.881,0,0,0-1.589,5.69v5.984a10.927,10.927,0,0,0,9.1,10.812.732.732,0,0,0,.852-.645l.054-.542A.723.723,0,0,0,806.515,2216.469Z" transform="translate(-790.09 -2184.52)" fill="#fff"/>
      </g>
      <g transform="matrix(1, 0, 0, 1, -7.02, -4.68)" filter="url(#Path_33732)">
        <path id="Path_33732-2" data-name="Path 33732" d="M810.41,2185.2a8.893,8.893,0,0,1,4.467-1.187,8.987,8.987,0,0,1,8.95,8.314.718.718,0,0,0,.719.661h.547a.729.729,0,0,0,.725-.783,10.971,10.971,0,0,0-16.506-8.671.8.8,0,0,0-.388.7v.106a.993.993,0,0,0,1.486.865Z" transform="translate(-796.4 -2177.33)" fill="#fff"/>
      </g>
      <g transform="matrix(1, 0, 0, 1, -7.02, -4.68)" filter="url(#Path_33736)">
        <path id="Path_33736-2" data-name="Path 33736" d="M820.695,2198.227h0a7.08,7.08,0,0,0-6.17-6.582,6.983,6.983,0,0,0-7.726,6.228.651.651,0,0,0,.65.71h.7a.645.645,0,0,0,.641-.572,4.986,4.986,0,0,1,9.931.29h0v0l0,.053a.632.632,0,0,0,.758.6h.006c.173-.021.348-.038.523-.052a1.441,1.441,0,0,0,.165-.018c.426-.075.517-.334.529-.5a.576.576,0,0,0-.011-.156Z" transform="translate(-795.26 -2182.44)" fill="#fff"/>
      </g>
      <g transform="matrix(1, 0, 0, 1, -7.02, -4.68)" filter="url(#Path_33737)">
        <path id="Path_33737-2" data-name="Path 33737" d="M821.189,2204.345l0,0a3.021,3.021,0,0,0-2.844-2.409,2.955,2.955,0,0,0-3.071,2.908v2.909a.984.984,0,0,0,1,.97h0a.984.984,0,0,0,1-.97v-2.842a1.025,1.025,0,0,1,.906-1.033.987.987,0,0,1,1.088.966v.09s-.21,1.488,1.327.685h0a.658.658,0,0,0,.076-.036A1.038,1.038,0,0,0,821.189,2204.345Z" transform="translate(-799.78 -2187.96)" fill="#fff"/>
      </g>
      <g transform="matrix(1, 0, 0, 1, -7.02, -4.68)" filter="url(#Path_33741)">
        <path id="Path_33741-2" data-name="Path 33741" d="M810.871,2223.347c.441.124.459-.388.352-1.181v0q-.035-.156-.064-.314a2.18,2.18,0,0,0-.636-1.051l-.027-.022-.011-.009h0a4.964,4.964,0,0,1-1.776-3.811v-3.263a.726.726,0,0,0-.726-.727h-.542a.726.726,0,0,0-.726.727v3.263a6.98,6.98,0,0,0,3.707,6.171.966.966,0,0,1,.152.079Q810.72,2223.28,810.871,2223.347Z" transform="translate(-795.22 -2193.85)" fill="#fff"/>
      </g>
    </g>
    <path id="Path_33742" data-name="Path 33742" d="M814.811,2229.709l-.01-.009h0Z" transform="translate(-806.552 -2207.469)" fill="#fff"/>
    <path id="Path_33743" data-name="Path 33743" d="M814.667,2234.76c.05.027.1.053.152.079A.966.966,0,0,0,814.667,2234.76Z" transform="translate(-806.482 -2210.169)" fill="#fff"/>
  </g>
</svg>
