<svg id="ic-amis-tuyendung" xmlns="http://www.w3.org/2000/svg" xmlns:xlink="http://www.w3.org/1999/xlink" width="40" height="40" viewBox="0 0 40 40">
  <defs>
    <linearGradient id="linear-gradient" x1="0.5" y1="1" x2="0.5" gradientUnits="objectBoundingBox">
      <stop offset="0" stop-color="#1d79f1"/>
      <stop offset="1" stop-color="#19a1fb"/>
    </linearGradient>
  </defs>
  <path id="App_Icon_Mask" data-name="App Icon Mask" d="M40,12.513c0-.478,0-.955,0-1.433,0-.4-.007-.8-.018-1.207a17.543,17.543,0,0,0-.231-2.627,8.849,8.849,0,0,0-.823-2.5,8.4,8.4,0,0,0-3.673-3.673,8.86,8.86,0,0,0-2.5-.823A17.559,17.559,0,0,0,30.128.021c-.4-.011-.8-.016-1.207-.018-.477,0-.955,0-1.433,0H12.513c-.477,0-.955,0-1.433,0-.4,0-.805.007-1.207.018A17.551,17.551,0,0,0,7.245.252a8.86,8.86,0,0,0-2.5.823A8.4,8.4,0,0,0,1.075,4.747a8.849,8.849,0,0,0-.823,2.5A17.542,17.542,0,0,0,.021,9.873q-.016.6-.018,1.207c0,.478,0,.955,0,1.433V27.487c0,.478,0,.955,0,1.433q0,.6.018,1.207a17.542,17.542,0,0,0,.231,2.627,8.853,8.853,0,0,0,.823,2.5,8.412,8.412,0,0,0,3.673,3.672,8.86,8.86,0,0,0,2.5.823,17.554,17.554,0,0,0,2.628.231c.4.011.8.016,1.207.018.477,0,.955,0,1.433,0H27.487c.478,0,.956,0,1.433,0,.4,0,.8-.007,1.207-.018a17.56,17.56,0,0,0,2.628-.231,8.86,8.86,0,0,0,2.5-.823,8.412,8.412,0,0,0,3.673-3.672,8.853,8.853,0,0,0,.823-2.5,17.544,17.544,0,0,0,.231-2.627c.011-.4.016-.8.018-1.207,0-.478,0-.955,0-1.433Z" fill="url(#linear-gradient)"/>
  <g id="Group_30189" data-name="Group 30189" transform="translate(6.519 6.917)">
    <path id="Path_33708" data-name="Path 33708" d="M-460.26,1404a3.947,3.947,0,0,0-3.948,3.948h0a3.947,3.947,0,0,0,3.948,3.946,3.947,3.947,0,0,0,3.946-3.946,3.947,3.947,0,0,0-3.947-3.948Z" transform="translate(473.549 -1398.036)" fill="#fff"/>
    <path id="Path_33709" data-name="Path 33709" d="M-634.757,1903.35h-2.65a6.8,6.8,0,0,0-5.942,3.693,9.2,9.2,0,0,0,7.136,3.383,9.2,9.2,0,0,0,7.291-3.578A6.8,6.8,0,0,0-634.757,1903.35Z" transform="translate(649.437 -1888.319)" fill="#fff"/>
    <path id="Path_33710" data-name="Path 33710" d="M-950.009,1098.7l-3.969-3.428a13.213,13.213,0,0,0-1.028-14.629,13.214,13.214,0,0,0-18.536-2.366,13.213,13.213,0,0,0-2.366,18.536,13.213,13.213,0,0,0,18.536,2.366c.326.282.731.625.731.625l3.242,2.8a2.475,2.475,0,0,0,1.626.607c.059,0,.119,0,.178-.006a2.475,2.475,0,0,0,1.7-.849l.133-.152A2.483,2.483,0,0,0-950.009,1098.7Zm-15.434,1.043a11.02,11.02,0,0,1-11.02-11.02,11.02,11.02,0,0,1,11.02-11.02,11.02,11.02,0,0,1,11.02,11.02,11.02,11.02,0,0,1-11.02,11.02Z" transform="translate(978.671 -1075.511)" fill="#fff"/>
  </g>
</svg>
