<svg xmlns="http://www.w3.org/2000/svg" xmlns:xlink="http://www.w3.org/1999/xlink" width="40" height="40" viewBox="0 0 40 40">
  <defs>
    <linearGradient id="linear-gradient" x1="0.5" x2="0.5" y2="1" gradientUnits="objectBoundingBox">
      <stop offset="0" stop-color="#50b83c"/>
      <stop offset="1" stop-color="#01a38a"/>
    </linearGradient>
    <filter id="Path_45783" x="10.101" y="6.299" width="21.801" height="31.201" filterUnits="userSpaceOnUse">
      <feOffset dy="1" input="SourceAlpha"/>
      <feGaussianBlur stdDeviation="0.5" result="blur"/>
      <feFlood flood-opacity="0.161"/>
      <feComposite operator="in" in2="blur"/>
      <feComposite in="SourceGraphic"/>
    </filter>
    <clipPath id="clip-ic-amis-tien-luong">
      <rect width="40" height="40"/>
    </clipPath>
  </defs>
  <g id="ic-amis-tien-luong" clip-path="url(#clip-ic-amis-tien-luong)">
    <g id="Group_52036" data-name="Group 52036" transform="translate(0 0.01)">
      <g id="Group_52034" data-name="Group 52034" transform="translate(0 -0.011)">
        <path id="Path_45782" data-name="Path 45782" d="M1200.6,2410.5c0-.48,0-.955,0-1.433,0-.4-.008-.8-.018-1.207a17.58,17.58,0,0,0-.231-2.626,8.861,8.861,0,0,0-.823-2.5,8.4,8.4,0,0,0-3.673-3.673,8.866,8.866,0,0,0-2.5-.823,17.655,17.655,0,0,0-2.628-.231c-.4-.01-.8-.016-1.208-.018-.477,0-.955,0-1.432,0h-14.975c-.478,0-.956,0-1.433,0-.4,0-.805.008-1.207.018a17.65,17.65,0,0,0-2.628.231,8.853,8.853,0,0,0-2.5.823,8.4,8.4,0,0,0-3.673,3.673,8.844,8.844,0,0,0-.823,2.5,17.533,17.533,0,0,0-.231,2.627q-.016.6-.018,1.208c0,.478,0,.955,0,1.433v14.974c0,.478,0,.955,0,1.433q0,.6.018,1.207a17.545,17.545,0,0,0,.231,2.627,8.85,8.85,0,0,0,.823,2.5,8.412,8.412,0,0,0,3.673,3.672,8.859,8.859,0,0,0,2.5.822,17.52,17.52,0,0,0,2.628.23c.4.011.8.016,1.207.018.478,0,.956,0,1.433,0h14.975c.48,0,.956,0,1.433,0,.4,0,.8-.007,1.207-.018a17.425,17.425,0,0,0,2.628-.23,8.849,8.849,0,0,0,2.5-.823,8.412,8.412,0,0,0,3.673-3.672,8.864,8.864,0,0,0,.823-2.5,17.577,17.577,0,0,0,.231-2.627c.01-.4.015-.8.018-1.207q0-.717,0-1.433Z" transform="translate(-1160.602 -2397.986)" fill="url(#linear-gradient)"/>
      </g>
      <g id="Group_52035" data-name="Group 52035" transform="translate(11.601 6.789)">
        <g transform="matrix(1, 0, 0, 1, -11.6, -6.8)" filter="url(#Path_45783)">
          <path id="Path_45783-2" data-name="Path 45783" d="M1354.4,2430a9.419,9.419,0,0,0-9.374,8.878c-.01.174-.026.346-.026.522v18.8h1.938a4.328,4.328,0,0,0,4.329-4.329v-5.617h0V2439.4a3.131,3.131,0,1,1,1.732,2.8v6.489a9.223,9.223,0,0,0,1.188.1l.213,0c.08,0,.162,0,.242,0l.24-.009c.08,0,.16-.009.24-.016a9.4,9.4,0,0,0,8.65-8.65c.006-.08.011-.16.016-.24s.007-.16.009-.24,0-.16,0-.242a9.4,9.4,0,0,0-9.4-9.4Z" transform="translate(-1333.4 -2423.2)" fill="#fff"/>
        </g>
        <path id="Path_45784" data-name="Path 45784" d="M1369.539,2453.5a3.134,3.134,0,0,1-4.534,2.8v6.49a9.178,9.178,0,0,0,1.188.105l.213,0c.08,0,.16,0,.242,0l.24-.009c.08,0,.16-.009.24-.016a9.4,9.4,0,0,0,8.65-8.65c.006-.08.011-.16.016-.24s.007-.16.009-.24,0-.16,0-.24Z" transform="translate(-1357.003 -2444.098)" fill="#fff"/>
      </g>
    </g>
  </g>
</svg>
