<svg id="ic-amis-mxh" xmlns="http://www.w3.org/2000/svg" xmlns:xlink="http://www.w3.org/1999/xlink" width="40" height="40" viewBox="0 0 40 40">
  <defs>
    <linearGradient id="linear-gradient" x1="0.105" y1="0.089" x2="0.836" y2="1" gradientUnits="objectBoundingBox">
      <stop offset="0" stop-color="#3f4cfe"/>
      <stop offset="0.703" stop-color="#7f73f0"/>
      <stop offset="1" stop-color="#8478f2"/>
    </linearGradient>
    <clipPath id="clip-path">
      <rect id="Rectangle_15866" data-name="Rectangle 15866" width="24.955" height="27.857" fill="none"/>
    </clipPath>
    <filter id="Ellipse_9" x="13.615" y="22.805" width="16.098" height="16.098" filterUnits="userSpaceOnUse">
      <feOffset dy="1" input="SourceAlpha"/>
      <feGaussianBlur stdDeviation="0.5" result="blur"/>
      <feFlood flood-opacity="0.161"/>
      <feComposite operator="in" in2="blur"/>
      <feComposite in="SourceGraphic"/>
    </filter>
    <filter id="Ellipse_9-2" x="3.394" y="18.297" width="12.096" height="12.054" filterUnits="userSpaceOnUse">
      <feOffset dy="1" input="SourceAlpha"/>
      <feGaussianBlur stdDeviation="0.5" result="blur-2"/>
      <feFlood flood-opacity="0.161"/>
      <feComposite operator="in" in2="blur-2"/>
      <feComposite in="SourceGraphic"/>
    </filter>
    <filter id="Ellipse_9-3" x="10.009" y="2.116" width="25.267" height="25.267" filterUnits="userSpaceOnUse">
      <feOffset dy="1" input="SourceAlpha"/>
      <feGaussianBlur stdDeviation="0.5" result="blur-3"/>
      <feFlood flood-opacity="0.161"/>
      <feComposite operator="in" in2="blur-3"/>
      <feComposite in="SourceGraphic"/>
    </filter>
  </defs>
  <path id="App_Icon_Mask-2" data-name="App Icon Mask-2" d="M338.124,1099.514c0-.478,0-.955,0-1.433,0-.4-.007-.8-.018-1.207a17.48,17.48,0,0,0-.23-2.627,8.844,8.844,0,0,0-.823-2.5,8.4,8.4,0,0,0-3.673-3.672,8.855,8.855,0,0,0-2.5-.821,17.535,17.535,0,0,0-2.628-.231c-.4-.011-.8-.015-1.208-.018-.477,0-.955,0-1.433,0H310.637c-.477,0-.955,0-1.433,0-.4,0-.807.007-1.207.018a17.541,17.541,0,0,0-2.628.231,8.87,8.87,0,0,0-2.5.823,8.4,8.4,0,0,0-3.673,3.673,8.854,8.854,0,0,0-.823,2.5,17.592,17.592,0,0,0-.23,2.627q-.016.6-.018,1.207c0,.476,0,.953,0,1.431v14.974c0,.478,0,.955,0,1.433q0,.6.018,1.207a17.59,17.59,0,0,0,.23,2.627,8.873,8.873,0,0,0,.823,2.5,8.414,8.414,0,0,0,3.673,3.672,8.874,8.874,0,0,0,2.5.823,17.557,17.557,0,0,0,2.628.231c.4.01.8.016,1.207.018.477,0,.955,0,1.433,0h14.974c.478,0,.954,0,1.433,0,.4,0,.8-.007,1.207-.018a17.541,17.541,0,0,0,2.628-.231,8.861,8.861,0,0,0,2.5-.823,8.414,8.414,0,0,0,3.673-3.672,8.845,8.845,0,0,0,.823-2.5,17.48,17.48,0,0,0,.23-2.627c.01-.4.016-.8.018-1.207,0-.478,0-.955,0-1.433Z" transform="translate(-298.124 -1087.002)" fill="url(#linear-gradient)"/>
  <g id="Group_30773" data-name="Group 30773" transform="translate(1.068 2.737)">
    <rect id="Rectangle_15865" data-name="Rectangle 15865" width="35.084" height="35.082" fill="none"/>
    <g id="Mask_Group_2" data-name="Mask Group 2" transform="translate(4.938 3.613)" clip-path="url(#clip-path)">
      <g id="Group_29722" data-name="Group 29722" transform="translate(-1.112 -3.734)">
        <g transform="matrix(1, 0, 0, 1, -4.89, -2.62)" filter="url(#Ellipse_9)">
          <path id="Ellipse_9-4" data-name="Ellipse 9" d="M4.9.008A4.021,4.021,0,0,1,9.254,4.361,5.332,5.332,0,0,1,4.361,9.254,4.021,4.021,0,0,1,.008,4.9,5.332,5.332,0,0,1,4.9.008Z" transform="translate(21.66 23.31) rotate(45)" fill="#fff"/>
        </g>
        <g transform="matrix(1, 0, 0, 1, -4.89, -2.62)" filter="url(#Ellipse_9-2)">
          <path id="Ellipse_9-5" data-name="Ellipse 9" d="M3.476.005a2.832,2.832,0,0,1,3.107,3A3.713,3.713,0,0,1,3.112,6.371a2.832,2.832,0,0,1-3.107-3A3.713,3.713,0,0,1,3.476.005Z" transform="matrix(0.8, 0.6, -0.6, 0.8, 8.72, 18.8)" fill="#fff"/>
        </g>
        <g transform="matrix(1, 0, 0, 1, -4.89, -2.62)" filter="url(#Ellipse_9-3)">
          <path id="Ellipse_9-6" data-name="Ellipse 9" d="M8.332.014a6.837,6.837,0,0,1,7.4,7.4,9.065,9.065,0,0,1-8.318,8.318,6.837,6.837,0,0,1-7.4-7.4A9.065,9.065,0,0,1,8.332.014Z" transform="translate(22.64 2.62) rotate(45)" fill="#fff"/>
        </g>
      </g>
    </g>
  </g>
</svg>
