<svg xmlns="http://www.w3.org/2000/svg" xmlns:xlink="http://www.w3.org/1999/xlink" width="40" height="40" viewBox="0 0 40 40">
  <defs>
    <linearGradient id="linear-gradient" x1="0.5" x2="0.5" y2="1" gradientUnits="objectBoundingBox">
      <stop offset="0" stop-color="#23db9d"/>
      <stop offset="1" stop-color="#14a575"/>
    </linearGradient>
    <clipPath id="clip-ic-bhxh">
      <rect width="40" height="40"/>
    </clipPath>
  </defs>
  <g id="ic-bhxh" clip-path="url(#clip-ic-bhxh)">
    <g id="ic_bhxh">
      <rect id="Rectangle_18991" data-name="Rectangle 18991" width="40" height="40" rx="8" fill="url(#linear-gradient)"/>
      <g id="Group_45674" data-name="Group 45674" transform="translate(7.289 8.504)">
        <path id="Path_34801" data-name="Path 34801" d="M4.46,6.79c1.7,2.383,3.976,4.379,5.414,6.871h0a8.526,8.526,0,0,1,5.521,5.679,6.241,6.241,0,0,0-1.438-5.062,14.351,14.351,0,0,0-4.206-3.265A23.212,23.212,0,0,1,7.594,9.746,13.994,13.994,0,0,1,5.943,8.4,13.341,13.341,0,0,1,4.46,6.79Z" transform="translate(-3.033 -2.689)" fill="#ededed"/>
        <path id="Path_34802" data-name="Path 34802" d="M4.083,8.327a19.949,19.949,0,0,0,1.255,2.94,15.029,15.029,0,0,0,2.049,2.77h0a44.585,44.585,0,0,1,4.588,5.091l.138.2a12.725,12.725,0,0,1,1.667,4.024.141.141,0,0,0,0,.077,11.569,11.569,0,0,1,.243,3.838h0a2.166,2.166,0,0,1-.077.7,8.452,8.452,0,0,0,1.361-3.931,14.732,14.732,0,0,0-.26-4.643A10.467,10.467,0,0,0,13.64,16a10.821,10.821,0,0,0-1.053-1.408h0c-1.912-2.12-4.512-3.668-6.607-5.679-.291-.279-.567-.557-.826-.85a5.819,5.819,0,0,1-1.407-2.43h0A5.386,5.386,0,0,1,3.562,5,6.584,6.584,0,0,0,4.083,8.327Z" transform="translate(-3.527 -3.669)" fill="#fff"/>
        <ellipse id="Ellipse_2247" data-name="Ellipse 2247" cx="1.636" cy="1.656" rx="1.636" ry="1.656" transform="translate(4.929 3.513)" fill="#fff"/>
        <path id="Path_34803" data-name="Path 34803" d="M23.362,6.79c-1.7,2.383-3.977,4.379-5.444,6.871h0A8.526,8.526,0,0,0,12.4,19.34a6.241,6.241,0,0,1,1.438-5.062,14.351,14.351,0,0,1,4.252-3.3,23.213,23.213,0,0,0,2.156-1.269,14,14,0,0,0,1.652-1.346A13.338,13.338,0,0,0,23.362,6.79Z" transform="translate(1.128 -2.689)" fill="#ededed"/>
        <path id="Path_34804" data-name="Path 34804" d="M24,8.327a19.948,19.948,0,0,1-1.255,2.94,15.039,15.039,0,0,1-1.973,2.77h0a44.584,44.584,0,0,0-4.588,5.091l-.138.2a12.726,12.726,0,0,0-1.667,4.024.141.141,0,0,1,0,.077,11.569,11.569,0,0,0-.243,3.838h0a2.166,2.166,0,0,0,.077.7,8.452,8.452,0,0,1-1.361-3.931,14.732,14.732,0,0,1,.258-4.644A10.467,10.467,0,0,1,14.513,16a10.821,10.821,0,0,1,1.055-1.408h0c1.9-2.166,4.495-3.714,6.592-5.726.291-.279.567-.557.826-.85a5.819,5.819,0,0,0,1.407-2.43h0A5.394,5.394,0,0,0,24.516,5,6.584,6.584,0,0,1,24,8.327Z" transform="translate(1.365 -3.669)" fill="#fff"/>
        <ellipse id="Ellipse_2248" data-name="Ellipse 2248" cx="1.636" cy="1.656" rx="1.636" ry="1.656" transform="translate(17.714 3.513)" fill="#fff"/>
        <ellipse id="Ellipse_2249" data-name="Ellipse 2249" cx="3.41" cy="3.451" rx="3.41" ry="3.451" transform="translate(9.548 0)" fill="#fff"/>
      </g>
    </g>
  </g>
</svg>
