<svg xmlns="http://www.w3.org/2000/svg" xmlns:xlink="http://www.w3.org/1999/xlink" width="40" height="40" viewBox="0 0 40 40">
  <defs>
    <linearGradient id="linear-gradient" x1="-0.17" y1="0.826" x2="0.751" y2="0.435" gradientUnits="objectBoundingBox">
      <stop offset="0" stop-color="#00c6ff"/>
      <stop offset="1" stop-color="#007aff"/>
    </linearGradient>
    <clipPath id="clip-ic-mintax">
      <rect width="40" height="40"/>
    </clipPath>
  </defs>
  <g id="ic-mintax" clip-path="url(#clip-ic-mintax)">
    <g id="Group_51763" data-name="Group 51763">
      <rect id="Rectangle_10947" data-name="Rectangle 10947" width="40" height="40" rx="12" fill="url(#linear-gradient)"/>
      <path id="Path_36077" data-name="Path 36077" d="M42.176,23.993a.8.8,0,0,1,0,1.384l-.72.417-.673.39-.62.36-.674.39-1.914,1.11-.674.39h0l-.619.36-.674.391-1.913,1.107-.674.39-.22.128a.8.8,0,0,0-.4.692v11.23a.8.8,0,0,1-1.2.692l-.624-.36-.176-.1a.8.8,0,0,1-.4-.692V29.838a.8.8,0,0,1,.4-.692l.178-.1,1.83-1.061.576-.334.626-.362.576-.334,1.828-1.063.576-.334.626-.362.576-.334-.576-.334-.225-.13a.8.8,0,0,0-.8,0l-.175.1-.626.363-1.778,1.031-.626.363-.576.334-.626.363h0L30,27.98l-.626.363-.176.1a.8.8,0,0,0-.4.692V40.562a.8.8,0,0,1-1.2.692l-.986-.572-.214-.124a.8.8,0,0,1-.4-.692V27.811a.8.8,0,0,1,.42-.7l.256-.138,2-1.16.63-.365.684-.4.63-.365,2-1.16.63-.365.684-.4.63-.365-.63-.364-.283-.164a.8.8,0,0,0-.8,0L32.62,22l-.685.4-1.944,1.127-.684.4-.63.365-.684.4-1.944,1.127-.654.378a.618.618,0,0,0-.06.04l-.195.137a.8.8,0,0,0-.339.652V38.243a.8.8,0,0,1-1.2.692l-.928-.538L22.4,38.24a.8.8,0,0,1-.4-.692V25.538a.8.8,0,0,1,.4-.692l.275-.16,1.913-1.108.673-.39.674-.39.62-.36L28.524,21.3l.62-.36.673-.39.62-.36L32.4,19.048l.219-.127a.8.8,0,0,1,.8,0l.272.16,1.913,1.109.674.39.62.36.674.39,1.914,1.109.674.39.62.36.673.39Z" transform="translate(-13.2 -11.288)" fill="#fff"/>
      <path id="Path_36078" data-name="Path 36078" d="M62.4,38.656V39.8a.8.8,0,0,1-.4.692l-.3.171-1.972,1.144-.692.4-.24.14a.8.8,0,0,0-.4.692v8.216a.8.8,0,0,1-.4.692l-.272.16-.928.536a.8.8,0,0,1-1.2-.692V44.194l-.624.36h0l-.576.334-.625.36-.575.334A.8.8,0,0,1,52,44.89V43.758a.8.8,0,0,1,.4-.692l.224-.13L54.6,41.788l.623-.36.677-.392.623-.36L58.5,39.529l.623-.36.677-.392.623-.36.776-.453a.8.8,0,0,1,1.2.692Z" transform="translate(-31.2 -22.714)" fill="#fff"/>
    </g>
  </g>
</svg>
